<svg width="734" height="734" viewBox="0 0 734 734" fill="none" xmlns="http://www.w3.org/2000/svg">
<path fill-rule="evenodd" clip-rule="evenodd" d="M233.667 0.333344C362.533 0.333344 467 52.563 467 117V167C467 185.409 452.077 200.333 433.667 200.333H400.333C357.983 221.94 298.956 233.667 233.667 233.667C168.377 233.667 109.35 221.94 67 200.333V250.333C67 274.523 124.268 294.703 200.351 299.334C218.726 300.453 233.667 315.257 233.667 333.667C233.667 352.077 218.722 367.127 200.35 365.953C148.425 362.64 102.013 351.53 67 333.667V383.667C67 407.857 124.268 428.037 200.351 432.667C218.726 433.787 233.667 448.59 233.667 467C233.667 485.41 218.711 500.467 200.348 499.153C87.2644 491.07 0.333374 442.447 0.333374 383.667V117C0.333374 52.563 104.8 0.333344 233.667 0.333344ZM67 117C67 89.3877 141.62 67 233.667 67C325.713 67 400.333 89.3877 400.333 117C400.333 144.612 325.713 167 233.667 167C141.62 167 67 144.612 67 117Z" fill="white"/>
<path fill-rule="evenodd" clip-rule="evenodd" d="M733.667 350.333C733.667 285.9 629.2 233.667 500.333 233.667C371.467 233.667 267 285.9 267 350.333V617C267 681.433 371.467 733.667 500.333 733.667C629.2 733.667 733.667 681.433 733.667 617V350.333ZM333.667 617C333.667 644.613 408.287 667 500.333 667C592.38 667 667 644.613 667 617V567C624.65 588.61 565.623 600.333 500.333 600.333C435.043 600.333 376.017 588.61 333.667 567V617ZM500.333 533.667C408.287 533.667 333.667 511.28 333.667 483.667V433.667C376.017 455.277 435.043 467 500.333 467C565.623 467 624.65 455.277 667 433.667V483.667C667 511.28 592.38 533.667 500.333 533.667ZM500.333 300.333C408.287 300.333 333.667 322.72 333.667 350.333C333.667 377.947 408.287 400.333 500.333 400.333C592.38 400.333 667 377.947 667 350.333C667 322.72 592.38 300.333 500.333 300.333Z" fill="white"/>
</svg>
