<svg width="500" height="500" viewBox="0 0 500 500" fill="none" xmlns="http://www.w3.org/2000/svg">
<g clip-path="url(#clip0_805_2264)">
<path d="M143.562 81.9214C143.562 84.3024 141.63 86.2334 139.249 86.2334C136.868 86.2334 134.938 84.3024 134.938 81.9214C134.938 79.5404 136.867 77.6094 139.249 77.6094C141.631 77.6094 143.562 79.5404 143.562 81.9214Z" fill="#F5F5F5"/>
<path d="M423.992 277.177C426.373 277.177 428.304 275.246 428.304 272.865C428.304 270.483 426.373 268.553 423.992 268.553C421.61 268.553 419.68 270.483 419.68 272.865C419.68 275.246 421.61 277.177 423.992 277.177Z" fill="#F5F5F5"/>
<path d="M113.025 301.532C115.406 301.532 117.337 299.602 117.337 297.22C117.337 294.839 115.406 292.908 113.025 292.908C110.643 292.908 108.713 294.839 108.713 297.22C108.713 299.602 110.643 301.532 113.025 301.532Z" fill="#F5F5F5"/>
<path d="M215.448 140.437C215.448 142.818 213.518 144.749 211.136 144.749C208.754 144.749 206.824 142.819 206.824 140.437C206.824 138.055 208.754 136.125 211.136 136.125C213.518 136.125 215.448 138.056 215.448 140.437Z" fill="#F5F5F5"/>
<path d="M337.289 77.0947C339.67 77.0947 341.601 75.1642 341.601 72.7827C341.601 70.4012 339.67 68.4707 337.289 68.4707C334.907 68.4707 332.977 70.4012 332.977 72.7827C332.977 75.1642 334.907 77.0947 337.289 77.0947Z" fill="#E6E6E6"/>
<path d="M370.101 161.437C372.482 161.437 374.413 159.506 374.413 157.124C374.413 154.743 372.482 152.812 370.101 152.812C367.72 152.812 365.789 154.743 365.789 157.124C365.789 159.506 367.72 161.437 370.101 161.437Z" fill="#E6E6E6"/>
<path d="M333.787 252.358C336.168 252.358 338.099 250.428 338.099 248.046C338.099 245.665 336.168 243.734 333.787 243.734C331.405 243.734 329.475 245.665 329.475 248.046C329.475 250.428 331.405 252.358 333.787 252.358Z" fill="#E6E6E6"/>
<path d="M93.5776 314.165C95.9591 314.165 97.8896 312.234 97.8896 309.853C97.8896 307.472 95.9591 305.541 93.5776 305.541C91.1962 305.541 89.2656 307.472 89.2656 309.853C89.2656 312.234 91.1962 314.165 93.5776 314.165Z" fill="#E6E6E6"/>
<path d="M204.74 256.524C207.121 256.524 209.052 254.594 209.052 252.212C209.052 249.831 207.121 247.9 204.74 247.9C202.358 247.9 200.428 249.831 200.428 252.212C200.428 254.594 202.358 256.524 204.74 256.524Z" fill="#E6E6E6"/>
<path d="M434.921 328.453H254.174C250.942 328.453 248.312 325.823 248.312 322.591V59.3171C248.312 56.0851 250.942 53.4551 254.174 53.4551H434.921C438.153 53.4551 440.783 56.0841 440.783 59.3171V322.591C440.783 325.824 438.153 328.453 434.921 328.453ZM254.174 53.7051C251.079 53.7051 248.562 56.2231 248.562 59.3171V322.591C248.562 325.686 251.08 328.203 254.174 328.203H434.921C438.016 328.203 440.533 325.686 440.533 322.591V59.3171C440.533 56.2231 438.015 53.7051 434.921 53.7051H254.174Z" fill="#E0E0E0"/>
<path d="M226.494 328.453H45.7468C42.5148 328.453 39.8848 325.823 39.8848 322.591V59.3171C39.8848 56.0851 42.5138 53.4551 45.7468 53.4551H226.494C229.726 53.4551 232.356 56.0841 232.356 59.3171V322.591C232.356 325.824 229.726 328.453 226.494 328.453ZM45.7468 53.7051C42.6528 53.7051 40.1348 56.2231 40.1348 59.3171V322.591C40.1348 325.686 42.6528 328.203 45.7468 328.203H226.494C229.589 328.203 232.106 325.686 232.106 322.591V59.3171C232.106 56.2231 229.588 53.7051 226.494 53.7051H45.7468Z" fill="#E0E0E0"/>
<path d="M491 389.521H-9V389.771H491V389.521Z" fill="#E0E0E0"/>
<path d="M58.7319 403.787H42.6719V404.037H58.7319V403.787Z" fill="#E0E0E0"/>
<path d="M214.882 401.076H161.352V401.326H214.882V401.076Z" fill="#E0E0E0"/>
<path d="M95.9824 413.076H59.7324V413.326H95.9824V413.076Z" fill="#E0E0E0"/>
<path d="M412.542 400.947H369.352V401.197H412.542V400.947Z" fill="#E0E0E0"/>
<path d="M427.781 400.947H421.451V401.197H427.781V400.947Z" fill="#E0E0E0"/>
<path d="M361.103 407.178H307.213V407.428H361.103V407.178Z" fill="#E0E0E0"/>
<path d="M426.464 341.958C425.869 335.47 421.848 329.796 415.924 327.084C413.101 325.714 409.974 325.089 406.842 325.27C404.994 322.735 402.529 320.715 399.679 319.402C394.916 317.038 389.35 316.908 384.482 319.047C383.073 317.774 381.482 316.718 379.761 315.915C369.391 311.026 356.971 315.5 348.284 333.882C339.598 352.264 337.822 377.668 348.217 382.59C349.351 383.119 350.585 383.401 351.836 383.416C352.133 391.225 354.356 397.4 358.943 399.581C361.847 400.951 365.411 400.574 369.2 398.909C370.327 402.902 372.277 405.885 375.187 407.263C379.157 409.106 384.227 407.774 389.526 404.383C390.453 405.815 391.749 406.97 393.278 407.727C403.665 412.655 422.192 395.228 430.903 376.828C439.129 359.425 435.591 347.41 426.462 341.96L426.464 341.958Z" fill="#E6E6E6"/>
<path opacity="0.2" d="M401.524 371.26C400.119 372.971 398.136 373.672 397.094 372.809C396.052 371.946 396.362 369.875 397.767 368.163C399.172 366.452 401.161 365.759 402.197 366.614C403.232 367.469 402.943 369.55 401.524 371.26Z" fill="white"/>
<path d="M393.441 323.378C393.441 323.378 398.62 323.556 396.377 330.051C396.377 330.051 401.959 331.18 400.238 336.405C400.238 336.405 413.123 334.785 413.654 339.361C416.115 337.565 419.429 337.472 421.986 339.128C421.986 339.128 417.548 328.863 406.935 329.472C406.959 329.453 400.637 318.197 393.441 323.379V323.378Z" fill="#E0E0E0"/>
<path d="M407.272 333.489C405.096 332.894 403.814 330.648 404.409 328.472C404.655 327.571 405.203 326.782 405.96 326.235C411.125 322.432 420.474 316.637 430.481 315.604C445.557 314.062 449.692 322.8 449.692 322.8C449.692 322.8 445.968 333.875 437.306 328.634C437.306 328.634 438.618 316.328 412.265 333.27C411.464 333.793 410.505 334.019 409.555 333.908C408.783 333.835 408.02 333.695 407.273 333.489H407.272Z" fill="#EBEBEB"/>
<path d="M437.33 328.667C445.991 333.908 449.716 322.833 449.716 322.833C442.496 319.806 437.33 328.667 437.33 328.667Z" fill="#E0E0E0"/>
<path d="M115.415 335.799C113.465 335.796 111.519 335.964 109.599 336.3C105.966 336.923 102.253 336.923 98.6191 336.3C96.6931 335.964 94.7421 335.796 92.7871 335.799C74.2291 335.799 59.1641 350.317 59.1641 368.252C59.1641 386.187 74.2291 400.705 92.7871 400.705C93.9991 400.709 95.2121 400.643 96.4161 400.508C101.529 399.961 106.686 399.961 111.8 400.508C113 400.643 114.207 400.709 115.414 400.705C133.987 400.705 149.037 386.172 149.037 368.252C149.037 350.332 133.988 335.799 115.415 335.799Z" fill="#E8FF4D"/>
<path d="M115.415 335.799C113.465 335.796 111.519 335.964 109.599 336.3C105.966 336.923 102.253 336.923 98.6191 336.3C96.6931 335.964 94.7421 335.796 92.7871 335.799C74.2291 335.799 59.1641 350.317 59.1641 368.252C59.1641 386.187 74.2291 400.705 92.7871 400.705C93.9991 400.709 95.2121 400.643 96.4161 400.508C101.529 399.961 106.686 399.961 111.8 400.508C113 400.643 114.207 400.709 115.414 400.705C133.987 400.705 149.037 386.172 149.037 368.252C149.037 350.332 133.988 335.799 115.415 335.799Z" fill="#E6E6E6"/>
<path opacity="0.2" d="M70.6315 353.355C73.1525 348.495 76.7065 344.608 79.9255 345.914C82.1575 346.84 79.2275 351.275 81.9905 352.353C84.7535 353.431 87.3215 348.496 90.0695 348.268C92.8175 348.04 92.1345 354.342 95.7485 354.494C99.3625 354.646 98.7855 348.708 101.095 348.921C103.662 349.164 102.811 363.819 99.7125 363.925C97.8145 363.925 97.9965 359.369 95.5825 359.369C91.3905 359.369 88.5205 365.58 84.7395 365.58C80.9585 365.58 83.5395 358.944 80.7755 358.291C78.0115 357.638 73.5465 368.162 69.7655 365.58C65.9845 362.999 68.8845 356.711 70.6315 353.355Z" fill="white"/>
<path d="M115.415 400.707C133.988 400.707 149.037 386.174 149.037 368.254C149.02 359.521 145.412 351.179 139.06 345.186C140.958 347.054 154.99 362.013 142.28 380.585C128.703 400.464 114.686 393.023 98.1034 395.771C81.7934 398.444 65.8474 387.328 65.3164 386.948C71.7454 395.669 81.9544 400.793 92.7884 400.737C94.0004 400.74 95.2124 400.675 96.4174 400.54C101.53 399.993 106.687 399.993 111.801 400.54C113.001 400.664 114.208 400.72 115.415 400.707Z" fill="#E0E0E0"/>
<path d="M101.868 334.205C97.2213 334.736 92.2553 323.074 87.9423 324.061C87.9423 324.061 94.2293 329.543 95.7943 334.449C95.7943 334.449 78.9373 331.609 74.8223 336.545C74.8223 336.545 97.9203 333.022 97.6013 339.157C97.4793 341.161 92.3013 341.511 92.3013 345.231C92.3013 345.231 98.5883 340.918 102.931 341.116C107.274 341.313 109.977 347.585 109.977 347.585C109.343 345.341 109.343 342.965 109.977 340.721C111.177 337.198 125.072 335.801 129.583 340.524C129.583 340.524 125.422 332.673 114.245 335.087C114.245 335.087 120.562 328.769 128.216 330.136C128.216 330.136 120.35 325.914 111.435 333.173C109.566 334.68 106.948 334.844 104.905 333.583L103.508 332.732C103.508 332.732 102.9 334.084 101.868 334.205Z" fill="#E0E0E0"/>
<path d="M102.762 335.985C102.306 331.885 104.812 324.367 101.486 319.553C101.486 319.553 105.495 316.819 107.849 320.434C109.244 325.732 108.357 331.371 105.404 335.985C105.04 336.608 103.005 338.263 102.762 335.985Z" fill="#E0E0E0"/>
<path d="M488.204 400.231C484.156 406.636 471.867 417.69 459.899 410.318C447.931 402.946 447.676 381.117 447.676 381.117C447.676 381.117 439.471 374.054 441.253 371.559C443.035 369.064 448.543 376.919 448.543 376.919C448.543 376.919 447.193 368.664 451.813 368.014C454.879 367.582 451.263 379.078 451.263 379.078C451.263 379.078 453.351 388.567 457.196 392.609C461.041 396.652 464.348 397.248 464.348 397.248C464.348 397.248 467.285 398.547 470.5 394.173C472.634 391.27 475.425 385.543 479.231 381.799C482.538 378.546 487.663 377.738 491.523 380.31C492.989 381.287 494.045 382.705 494.198 384.718C494.797 392.59 488.204 400.231 488.204 400.231Z" fill="#F0F0F0"/>
<path d="M453.269 385.642C451.953 382.21 451.263 379.076 451.263 379.076C451.263 379.076 454.879 367.58 451.813 368.012C447.193 368.663 448.543 376.917 448.543 376.917C448.543 376.917 443.035 369.062 441.253 371.557C439.471 374.052 447.676 381.115 447.676 381.115C447.676 381.115 447.718 384.447 448.478 388.942C450.072 387.837 451.8 386.644 453.27 385.641L453.269 385.642Z" fill="#E0E0E0"/>
<path d="M459.899 410.318C461.408 411.248 462.922 411.883 464.424 412.272L467.628 396.833C465.726 397.855 464.348 397.247 464.348 397.247C464.348 397.247 461.701 396.762 458.392 393.77L452.217 401.246C453.993 404.888 456.461 408.2 459.898 410.317L459.899 410.318Z" fill="#E0E0E0"/>
<path d="M471.24 393.098C472.935 397.559 475.991 405.319 477.839 409.992C482.533 407.324 486.29 403.259 488.204 400.23C488.204 400.23 488.732 399.611 489.466 398.571C484.335 394.97 478.97 387.602 476.852 384.525C474.601 387.452 472.765 390.781 471.24 393.098Z" fill="#E0E0E0"/>
<path d="M55.6709 373.098C55.4469 372.775 55.2109 372.459 54.9629 372.152C50.3379 366.426 42.0619 365.496 35.7309 369.249C26.8979 374.485 20.6759 384.388 20.0539 394.638C19.7589 399.503 20.6609 404.507 23.1019 408.725C25.5429 412.944 29.5989 416.308 34.3379 417.447C41.5059 419.169 49.2539 415.504 53.7449 409.658C58.2369 403.812 59.8599 396.182 59.8109 388.81C59.7749 383.311 58.7989 377.621 55.6709 373.098Z" fill="#F0F0F0"/>
<g opacity="0.3">
<path d="M38.58 372.531C36.354 371.72 29.549 378.74 27.742 383.542C27.375 384.518 27.062 385.544 27.128 386.585C27.194 387.626 27.708 388.691 28.636 389.167C29.512 389.615 30.599 389.463 31.474 389.013C32.349 388.563 33.057 387.852 33.749 387.152C35.754 385.125 37.759 383.098 39.764 381.071C41.031 379.79 42.392 378.273 42.271 376.475C42.144 374.573 40.371 373.187 38.58 372.531Z" fill="white"/>
</g>
<path d="M43.5787 409.247C50.1901 406.771 53.5422 399.404 51.066 392.793C48.5898 386.181 41.2229 382.829 34.6115 385.305C28.0002 387.782 24.648 395.149 27.1242 401.76C29.6004 408.371 36.9674 411.723 43.5787 409.247Z" fill="#E0E0E0"/>
<path d="M374.098 442.628C374.098 457.861 316.136 470.21 244.636 470.21C173.136 470.21 115.174 457.861 115.174 442.628C115.174 427.395 173.136 415.045 244.636 415.045C316.136 415.045 374.098 427.394 374.098 442.628Z" fill="#F5F5F5"/>
<path d="M381.638 330.248H100.614C100.614 330.248 93.5891 460.424 257.629 453.976C382.517 449.067 381.638 330.248 381.638 330.248Z" fill="#263238"/>
<path opacity="0.2" d="M381.638 330.248H100.614C100.614 330.248 93.5891 460.424 257.629 453.976C382.517 449.067 381.638 330.248 381.638 330.248Z" fill="white"/>
<path d="M241.125 368.715C318.728 368.715 381.637 351.493 381.637 330.247C381.637 309.002 318.728 291.779 241.125 291.779C163.523 291.779 100.613 309.002 100.613 330.247C100.613 351.493 163.523 368.715 241.125 368.715Z" fill="#263238"/>
<path opacity="0.2" d="M241.078 361.319C311.337 361.319 368.293 347.001 368.293 329.339C368.293 311.677 311.337 297.359 241.078 297.359C170.819 297.359 113.863 311.677 113.863 329.339C113.863 347.001 170.819 361.319 241.078 361.319Z" fill="black"/>
<path d="M142.4 220L143.36 200.56L142.4 164.8H172.4L171.52 173.36H153.52L153.04 187.52H169.04L168.16 196H152.72L152.64 199.2L153.2 211.52H172.56L171.68 220H142.4ZM203.215 199.76C203.215 196.08 202.895 193.627 202.255 192.4C201.615 191.173 200.122 190.56 197.775 190.56C195.428 190.56 192.762 191.493 189.775 193.36V199.2L190.655 218L179.935 220L180.895 200.56C180.682 193.413 180.095 187.013 179.135 181.36L188.815 179.28C189.188 182.373 189.455 185.387 189.615 188.32C190.415 187.253 191.322 186.213 192.335 185.2C193.348 184.133 194.948 182.96 197.135 181.68C199.322 180.347 201.535 179.68 203.775 179.68C206.015 179.68 207.908 180.4 209.455 181.84C211.002 183.28 211.988 185.253 212.415 187.76C216.842 182.373 221.322 179.68 225.855 179.68C228.682 179.68 230.922 180.64 232.575 182.56C234.228 184.427 235.055 186.987 235.055 190.24L234.575 199.2L235.455 218.4L224.655 220.4L225.615 199.76C225.615 196.08 225.295 193.627 224.655 192.4C224.015 191.173 222.548 190.56 220.255 190.56C217.962 190.56 215.375 191.44 212.495 193.2L212.175 199.2L213.055 218.4L202.255 220.4L203.215 199.76ZM265.594 179.6C269.007 179.6 271.86 181.093 274.154 184.08C276.5 187.067 277.674 191.093 277.674 196.16C277.674 203.253 275.834 209.013 272.154 213.44C268.527 217.813 263.994 220 258.554 220C257.434 220 256.18 219.92 254.794 219.76L255.194 235.04L244.234 237.04L245.274 200.56H245.354C245.14 193.413 244.554 187.013 243.594 181.36L253.274 179.28C253.594 182.107 253.86 184.907 254.074 187.68C254.18 187.413 254.714 186.693 255.674 185.52C256.687 184.293 258.154 183.013 260.074 181.68C261.994 180.293 263.834 179.6 265.594 179.6ZM262.474 190C259.647 190 256.9 190.773 254.234 192.32V199.2L254.554 210.64C257.434 211.12 259.62 211.36 261.114 211.36C266.234 211.36 268.794 207.813 268.794 200.72C268.794 193.573 266.687 190 262.474 190ZM287.432 181.28V172.56L298.232 170.48L297.192 181.28H306.872L305.992 187.84H296.872L296.472 204.56C296.472 207.067 296.712 208.747 297.192 209.6C297.672 210.4 298.552 210.8 299.832 210.8C301.112 210.8 302.819 210.507 304.952 209.92L305.432 215.6C301.912 218.533 298.819 220 296.152 220C293.485 220 291.299 219.04 289.592 217.12C287.885 215.147 287.032 212.587 287.032 209.44L287.512 200.48L287.432 187.84H281.912L282.792 181.28H287.432ZM313.869 235.44L322.109 216.96L316.189 200.8L308.109 181.36L318.749 179.36L323.869 196.4L326.509 204.48H327.549L329.469 198.64L335.229 179.28L345.069 180.48L330.909 217.68L324.189 237.6L313.869 235.44Z" fill="white"/>
</g>
<defs>
<clipPath id="clip0_805_2264">
<rect width="500" height="500" fill="white"/>
</clipPath>
</defs>
</svg>
