<svg xmlns="http://www.w3.org/2000/svg" viewBox="0 0 500 500"><g id="freepik--background-complete--inject-36"><path d="M143.561,81.921c0,2.381-1.931,4.312-4.312,4.312s-4.312-1.931-4.312-4.312,1.93-4.312,4.312-4.312,4.312,1.931,4.312,4.312Z" style="fill:#f5f5f5;"></path><circle cx="423.991" cy="272.865" r="4.312" style="fill:#f5f5f5;"></circle><circle cx="113.024" cy="297.22" r="4.312" style="fill:#f5f5f5;"></circle><path d="M215.448,140.437c0,2.381-1.93,4.312-4.312,4.312s-4.312-1.93-4.312-4.312,1.93-4.312,4.312-4.312,4.312,1.931,4.312,4.312Z" style="fill:#f5f5f5;"></path><circle cx="337.289" cy="72.782" r="4.312" style="fill:#e6e6e6;"></circle><circle cx="370.102" cy="157.124" r="4.312" style="fill:#e6e6e6;"></circle><circle cx="333.787" cy="248.046" r="4.312" style="fill:#e6e6e6;"></circle><circle cx="93.578" cy="309.852" r="4.312" style="fill:#e6e6e6;"></circle><circle cx="204.74" cy="252.213" r="4.312" style="fill:#e6e6e6;"></circle><g><g><g><path d="M443.92,328.453h-180.746c-3.232,0-5.862-2.63-5.862-5.862V59.317c0-3.232,2.63-5.862,5.862-5.862h180.746c3.232,0,5.862,2.629,5.862,5.862V322.591c0,3.233-2.63,5.862-5.862,5.862ZM263.174,53.705c-3.095,0-5.612,2.518-5.612,5.612V322.591c0,3.095,2.518,5.612,5.612,5.612h180.746c3.095,0,5.612-2.517,5.612-5.612V59.317c0-3.094-2.518-5.612-5.612-5.612h-180.746Z" style="fill:#e0e0e0;"></path><path d="M235.493,328.453H54.746c-3.232,0-5.862-2.63-5.862-5.862V59.317c0-3.232,2.629-5.862,5.862-5.862H235.493c3.232,0,5.862,2.629,5.862,5.862V322.591c0,3.233-2.63,5.862-5.862,5.862ZM54.746,53.705c-3.094,0-5.612,2.518-5.612,5.612V322.591c0,3.095,2.518,5.612,5.612,5.612H235.493c3.095,0,5.612-2.517,5.612-5.612V59.317c0-3.094-2.518-5.612-5.612-5.612H54.746Z" style="fill:#e0e0e0;"></path></g><rect x="0" y="389.522" width="500" height=".25" style="fill:#e0e0e0;"></rect></g><rect x="51.672" y="403.787" width="16.06" height=".25" style="fill:#e0e0e0;"></rect><rect x="170.352" y="401.077" width="53.53" height=".25" style="fill:#e0e0e0;"></rect><rect x="68.732" y="413.077" width="36.25" height=".25" style="fill:#e0e0e0;"></rect><rect x="378.352" y="400.947" width="43.19" height=".25" style="fill:#e0e0e0;"></rect><rect x="430.452" y="400.947" width="6.33" height=".25" style="fill:#e0e0e0;"></rect><rect x="316.212" y="407.177" width="53.89" height=".25" style="fill:#e0e0e0;"></rect></g><g id="freepik--freepik--Pepper--inject-2--inject-36"><path d="M426.464,341.957c-.595-6.488-4.616-12.162-10.54-14.874-2.823-1.37-5.95-1.995-9.082-1.814-1.848-2.535-4.313-4.555-7.163-5.868-4.763-2.364-10.329-2.494-15.197-.355-1.409-1.273-3-2.329-4.721-3.132-10.37-4.889-22.79-.415-31.477,17.967-8.686,18.382-10.462,43.786-.067,48.708,1.134,.529,2.368,.811,3.619,.826,.297,7.809,2.52,13.984,7.107,16.165,2.904,1.37,6.468,.993,10.257-.672,1.127,3.993,3.077,6.976,5.987,8.354,3.97,1.843,9.04,.511,14.339-2.88,.927,1.432,2.223,2.587,3.752,3.344,10.387,4.928,28.914-12.499,37.625-30.899,8.226-17.403,4.688-29.418-4.441-34.868Z" style="fill:#e6e6e6;"></path><path d="M401.525,371.26c-1.405,1.711-3.388,2.412-4.43,1.549s-.732-2.934,.673-4.646c1.405-1.711,3.394-2.404,4.43-1.549,1.035,.855,.746,2.936-.673,4.646Z" style="fill:#fff; isolation:isolate; opacity:.2;"></path><path d="M393.441,323.378s5.179,.178,2.936,6.673c0,0,5.582,1.129,3.861,6.354,0,0,12.885-1.62,13.416,2.956,2.461-1.796,5.775-1.889,8.332-.233,0,0-4.438-10.265-15.051-9.656,.024-.019-6.298-11.275-13.494-6.093Z" style="fill:#e0e0e0; isolation:isolate;"></path><path d="M407.272,333.488c-2.176-.595-3.458-2.841-2.863-5.017,.246-.901,.794-1.69,1.551-2.237,5.165-3.803,14.514-9.598,24.521-10.631,15.076-1.542,19.211,7.196,19.211,7.196,0,0-3.724,11.075-12.386,5.834,0,0,1.312-12.306-25.041,4.636-.801,.523-1.76,.749-2.71,.638-.772-.073-1.535-.213-2.282-.419Z" style="fill:#ebebeb;"></path><path d="M437.331,328.666c8.661,5.241,12.386-5.834,12.386-5.834-7.22-3.027-12.386,5.834-12.386,5.834Z" style="fill:#e0e0e0; isolation:isolate;"></path></g><g id="freepik--freepik--Tomato--inject-2--inject-36"><path d="M115.415,335.8c-1.95-.003-3.896,.165-5.816,.501-3.633,.623-7.346,.623-10.98,0-1.926-.336-3.877-.504-5.832-.501-18.558,0-33.623,14.518-33.623,32.453s15.065,32.453,33.623,32.453c1.212,.004,2.425-.062,3.629-.197,5.113-.547,10.27-.547,15.384,0,1.2,.135,2.407,.201,3.614,.197,18.573,0,33.623-14.533,33.623-32.453s-15.05-32.453-33.623-32.453Z" style="fill:#E8FF4D;"></path><path d="M115.415,335.8c-1.95-.003-3.896,.165-5.816,.501-3.633,.623-7.346,.623-10.98,0-1.926-.336-3.877-.504-5.832-.501-18.558,0-33.623,14.518-33.623,32.453s15.065,32.453,33.623,32.453c1.212,.004,2.425-.062,3.629-.197,5.113-.547,10.27-.547,15.384,0,1.2,.135,2.407,.201,3.614,.197,18.573,0,33.623-14.533,33.623-32.453s-15.05-32.453-33.623-32.453Z" style="fill:#e6e6e6;"></path><path d="M70.631,353.356c2.521-4.86,6.075-8.747,9.294-7.441,2.232,.926-.698,5.361,2.065,6.439s5.331-3.857,8.079-4.085c2.748-.228,2.065,6.074,5.679,6.226,3.614,.152,3.037-5.786,5.346-5.573,2.567,.243,1.716,14.898-1.382,15.004-1.898,0-1.716-4.556-4.13-4.556-4.192,0-7.062,6.211-10.843,6.211s-1.2-6.636-3.964-7.289c-2.764-.653-7.229,9.871-11.01,7.289-3.781-2.581-.881-8.869,.866-12.225Z" style="fill:#fff; isolation:isolate; opacity:.2;"></path><path d="M115.415,400.707c18.573,0,33.622-14.533,33.622-32.453-.017-8.733-3.625-17.075-9.977-23.068,1.898,1.868,15.93,16.827,3.22,35.399-13.577,19.879-27.594,12.438-44.177,15.186-16.31,2.673-32.256-8.443-32.787-8.823,6.429,8.721,16.638,13.845,27.472,13.789,1.212,.003,2.424-.062,3.629-.197,5.113-.547,10.27-.547,15.384,0,1.2,.124,2.407,.18,3.614,.167Z" style="fill:#e0e0e0; isolation:isolate;"></path><path d="M101.869,334.206c-4.647,.531-9.613-11.131-13.926-10.144,0,0,6.287,5.482,7.852,10.388,0,0-16.857-2.84-20.972,2.096,0,0,23.098-3.523,22.779,2.612-.122,2.004-5.3,2.354-5.3,6.074,0,0,6.287-4.313,10.63-4.115,4.343,.197,7.046,6.469,7.046,6.469-.634-2.244-.634-4.62,0-6.864,1.2-3.523,15.095-4.92,19.606-.197,0,0-4.161-7.851-15.338-5.437,0,0,6.317-6.318,13.971-4.951,0,0-7.866-4.222-16.781,3.037-1.869,1.507-4.487,1.671-6.53,.41l-1.397-.851s-.608,1.352-1.64,1.473Z" style="fill:#e0e0e0; isolation:isolate;"></path><path d="M102.763,335.986c-.456-4.1,2.05-11.618-1.276-16.432,0,0,4.009-2.734,6.363,.881,1.395,5.298,.508,10.937-2.445,15.551-.364,.623-2.399,2.278-2.642,0Z" style="fill:#e0e0e0; isolation:isolate;"></path></g><g><path d="M222.157,84.069c-4.048,6.405-16.337,17.459-28.305,10.087-11.968-7.372-12.223-29.201-12.223-29.201,0,0-8.205-7.063-6.423-9.558,1.782-2.495,7.29,5.36,7.29,5.36,0,0-1.35-8.255,3.27-8.905,3.066-.432-.55,11.064-.55,11.064,0,0,2.088,9.489,5.933,13.531,3.845,4.043,7.152,4.639,7.152,4.639,0,0,2.937,1.299,6.152-3.075,2.134-2.903,4.925-8.63,8.731-12.374,3.307-3.253,8.432-4.061,12.292-1.489,1.466,.977,2.522,2.395,2.675,4.408,.599,7.872-5.994,15.513-5.994,15.513Z" style="fill:#f0f0f0;"></path><g><path d="M187.222,69.48c-1.316-3.432-2.006-6.566-2.006-6.566,0,0,3.616-11.496,.55-11.064-4.62,.651-3.27,8.905-3.27,8.905,0,0-5.508-7.855-7.29-5.36-1.782,2.495,6.423,9.558,6.423,9.558,0,0,.042,3.332,.802,7.827,1.594-1.105,3.322-2.298,4.792-3.301Z" style="fill:#e0e0e0;"></path><path d="M193.852,94.156c1.509,.93,3.023,1.565,4.525,1.954l3.204-15.439c-1.902,1.022-3.28,.414-3.28,.414,0,0-2.647-.485-5.956-3.477l-6.175,7.476c1.776,3.642,4.244,6.954,7.681,9.071Z" style="fill:#e0e0e0;"></path><path d="M205.193,76.936c1.695,4.461,4.751,12.221,6.599,16.894,4.694-2.668,8.451-6.733,10.365-9.762,0,0,.528-.619,1.262-1.659-5.131-3.601-10.496-10.969-12.614-14.046-2.251,2.927-4.087,6.256-5.612,8.573Z" style="fill:#e0e0e0;"></path></g></g><g><path d="M405.582,99.757c7.19-4.181,24.763-8.706,32.673,4.543,7.91,13.249-2.918,34.629-2.918,34.629,0,0,4.403,11.039,1.403,12.564-3,1.525-4.377-8.917-4.377-8.917,0,0-2.875,8.72-7.702,7.01-3.203-1.135,6.149-10.491,6.149-10.491,0,0,2.782-10.296,1.09-16.183-1.692-5.887-4.609-8.145-4.609-8.145,0,0-2.2-2.754-7.55-.128-3.551,1.743-9.173,5.903-14.778,7.615-4.87,1.488-10.269-.325-12.721-4.788-.931-1.695-1.24-3.612-.367-5.649,3.412-7.967,13.707-12.06,13.707-12.06Z" style="fill:#f0f0f0;"></path><g><path d="M432.187,131.685c-.46,4.009-1.378,7.409-1.378,7.409,0,0-9.353,9.356-6.149,10.491,4.828,1.711,7.702-7.01,7.702-7.01,0,0,1.377,10.442,4.377,8.917,3.001-1.525-1.403-12.564-1.403-12.564,0,0,1.65-3.265,3.191-8.026-2.113,.267-4.4,.551-6.34,.782Z" style="fill:#e0e0e0;"></path><path d="M438.254,104.3c-.997-1.671-2.149-3.057-3.414-4.199l-10.953,13.404c2.37-.03,3.403,1.261,3.403,1.261,0,0,2.33,1.815,4.034,6.406l9.804-4.145c.119-4.447-.602-8.923-2.874-12.728Z" style="fill:#e0e0e0;"></path><path d="M418.477,115.308c.613-5.203,1.576-14.307,2.149-19.794-5.923,.216-11.644,2.266-15.043,4.243,0,0-.827,.334-2.07,.975,3.167,6.109,4.651,16.004,5.152,20.074,3.677-1.707,7.153-4.016,9.813-5.498Z" style="fill:#e0e0e0;"></path></g></g><g><g><path d="M97.367,137.784c-.224-.323-.46-.639-.708-.946-4.625-5.726-12.901-6.656-19.232-2.903-8.833,5.236-15.055,15.139-15.677,25.389-.295,4.865,.607,9.869,3.048,14.087,2.441,4.219,6.497,7.583,11.236,8.722,7.168,1.722,14.916-1.943,19.407-7.789,4.492-5.846,6.115-13.476,6.066-20.848-.036-5.499-1.012-11.19-4.14-15.713Z" style="fill:#f0f0f0;"></path><g style="opacity:.3;"><path d="M80.276,137.218c-2.226-.811-9.031,6.209-10.838,11.011-.367,.976-.68,2.002-.614,3.043,.066,1.041,.58,2.106,1.508,2.582,.876,.448,1.963,.296,2.838-.154,.875-.45,1.583-1.161,2.275-1.861,2.005-2.027,4.01-4.054,6.015-6.081,1.267-1.281,2.628-2.798,2.507-4.596-.127-1.902-1.9-3.288-3.691-3.944Z" style="fill:#fff;"></path></g></g><circle cx="80.792" cy="161.962" r="12.783" transform="translate(-51.675 38.627) rotate(-20.533)" style="fill:#e0e0e0;"></circle></g></g><g id="freepik--Shadow--inject-36"><path d="M374.098,442.628c0,15.233-57.962,27.582-129.462,27.582s-129.462-12.349-129.462-27.582,57.962-27.583,129.462-27.583,129.462,12.349,129.462,27.583Z" style="fill:#f5f5f5;"></path></g><g id="freepik--Bowl--inject-36"><g><path d="M381.639,330.248H100.615s-7.025,130.176,157.015,123.728c124.888-4.909,124.009-123.728,124.009-123.728Z" style="fill:#263238;"></path><path d="M381.639,330.248H100.615s-7.025,130.176,157.015,123.728c124.888-4.909,124.009-123.728,124.009-123.728Z" style="fill:#fff; isolation:isolate; opacity:.2;"></path><ellipse cx="241.127" cy="330.248" rx="140.512" ry="38.468" style="fill:#263238;"></ellipse><ellipse cx="241.079" cy="329.34" rx="127.215" ry="31.98" style="isolation:isolate; opacity:.2;"></ellipse></g></g><g id="freepik--Shrimp--inject-36"><g><path d="M382.159,256.481c6.085,4.515,16.191,17.594,7.947,28.979-8.244,11.385-30.032,10.011-30.032,10.011,0,0-7.655,7.655-10.011,5.692-2.355-1.963,5.889-6.87,5.889-6.87,0,0-8.332,.73-8.637-3.926-.202-3.089,10.992,1.374,10.992,1.374,0,0,9.618-1.374,13.936-4.907,4.318-3.533,5.16-6.786,5.16-6.786,0,0,1.514-2.832-2.608-6.365-2.736-2.345-8.239-5.555-11.688-9.629-2.997-3.54-3.421-8.711-.567-12.368,1.084-1.389,2.577-2.336,4.596-2.339,7.895-.01,15.022,7.135,15.022,7.135Z" style="fill:#E8FF4D;"></path><path d="M382.159,256.481c6.085,4.515,16.191,17.594,7.947,28.979-8.244,11.385-30.032,10.011-30.032,10.011,0,0-7.655,7.655-10.011,5.692-2.355-1.963,5.889-6.87,5.889-6.87,0,0-8.332,.73-8.637-3.926-.202-3.089,10.992,1.374,10.992,1.374,0,0,9.618-1.374,13.936-4.907,4.318-3.533,5.16-6.786,5.16-6.786,0,0,1.514-2.832-2.608-6.365-2.736-2.345-8.239-5.555-11.688-9.629-2.997-3.54-3.421-8.711-.567-12.368,1.084-1.389,2.577-2.336,4.596-2.339,7.895-.01,15.022,7.135,15.022,7.135Z" style="fill:#fff; opacity:.7;"></path><g><path d="M365.005,290.229c-3.521,1.056-6.697,1.511-6.697,1.511,0,0-11.194-4.463-10.992-1.374,.304,4.656,8.636,3.926,8.636,3.926,0,0-8.244,4.907-5.889,6.87,2.356,1.963,10.011-5.692,10.011-5.692,0,0,3.326,.206,7.865-.216-.983-1.673-2.044-3.484-2.935-5.025Z" style="fill:#E8FF4D;"></path><path d="M390.106,285.46c1.04-1.436,1.786-2.898,2.287-4.367l-15.157-4.347c.877,1.973,.168,3.302,.168,3.302,0,0-.681,2.603-3.911,5.68l6.995,6.715c3.765-1.5,7.251-3.713,9.619-6.983Z" style="fill:#E8FF4D; opacity:.4;"></path><path d="M373.781,272.865c4.575-1.358,12.541-3.826,17.339-5.32-2.31-4.88-6.084-8.93-8.961-11.065,0,0-.577-.572-1.56-1.382-3.974,4.848-11.722,9.648-14.948,11.53,2.75,2.463,5.933,4.543,8.13,6.236Z" style="fill:#E8FF4D; opacity:.4;"></path></g></g><g><path d="M83.313,272.555c-7.335-3.477-20.68-15.118-14.387-28.8,6.293-13.681,29.476-16.775,29.476-16.775,0,0,6.451-9.639,9.335-8.067,2.884,1.572-4.758,8.446-4.758,8.446,0,0,8.604-2.502,9.894,2.327,.856,3.205-11.838,.845-11.838,.845,0,0-9.822,3.447-13.624,8.059s-4.009,8.207-4.009,8.207c0,0-1.002,3.291,4.066,6.146,3.364,1.895,9.815,4.122,14.289,7.686,3.887,3.097,5.409,8.443,3.172,12.88-.85,1.686-2.222,2.992-4.343,3.415-8.295,1.654-17.273-4.37-17.273-4.37Z" style="fill:#E8FF4D;"></path><path d="M83.313,272.555c-7.335-3.477-20.68-15.118-14.387-28.8,6.293-13.681,29.476-16.775,29.476-16.775,0,0,6.451-9.639,9.335-8.067,2.884,1.572-4.758,8.446-4.758,8.446,0,0,8.604-2.502,9.894,2.327,.856,3.205-11.838,.845-11.838,.845,0,0-9.822,3.447-13.624,8.059s-4.009,8.207-4.009,8.207c0,0-1.002,3.291,4.066,6.146,3.364,1.895,9.815,4.122,14.289,7.686,3.887,3.097,5.409,8.443,3.172,12.88-.85,1.686-2.222,2.992-4.343,3.415-8.295,1.654-17.273-4.37-17.273-4.37Z" style="fill:#fff; opacity:.7;"></path><g><path d="M94.312,233.515c3.48-1.843,6.723-2.983,6.723-2.983,0,0,12.693,2.36,11.838-.845-1.289-4.829-9.894-2.327-9.894-2.327,0,0,7.642-6.874,4.758-8.446-2.884-1.572-9.335,8.067-9.335,8.067,0,0-3.539,.476-8.221,1.865,1.382,1.553,2.873,3.236,4.131,4.67Z" style="fill:#E8FF4D;"></path><path d="M68.926,243.755c-.794,1.725-1.273,3.417-1.493,5.065l16.834,1.412c-1.333-1.89-.864-3.435-.864-3.435,0,0,.174-2.877,2.927-6.784l-8.749-5.601c-3.644,2.36-6.847,5.412-8.655,9.342Z" style="fill:#E8FF4D; opacity:.4;"></path><path d="M88.705,253.591c-4.525,2.379-12.383,6.633-17.114,9.202,3.444,4.647,8.254,8.118,11.722,9.762,0,0,.726,.481,1.928,1.128,3.167-5.922,10.309-12.581,13.308-15.231-3.404-2.016-7.181-3.538-9.843-4.861Z" style="fill:#E8FF4D; opacity:.4;"></path></g></g><g><path d="M231.602,189.335c-4.048,6.405-16.337,17.459-28.305,10.087-11.968-7.372-12.223-29.201-12.223-29.201,0,0-8.205-7.063-6.423-9.558,1.782-2.495,7.29,5.36,7.29,5.36,0,0-1.35-8.255,3.27-8.905,3.066-.432-.55,11.064-.55,11.064,0,0,2.088,9.489,5.933,13.531,3.845,4.043,7.152,4.639,7.152,4.639,0,0,2.937,1.299,6.152-3.075,2.134-2.903,4.925-8.63,8.731-12.374,3.307-3.253,8.432-4.061,12.292-1.489,1.466,.977,2.522,2.396,2.675,4.408,.599,7.872-5.994,15.513-5.994,15.513Z" style="fill:#E8FF4D;"></path><path d="M231.602,189.335c-4.048,6.405-16.337,17.459-28.305,10.087-11.968-7.372-12.223-29.201-12.223-29.201,0,0-8.205-7.063-6.423-9.558,1.782-2.495,7.29,5.36,7.29,5.36,0,0-1.35-8.255,3.27-8.905,3.066-.432-.55,11.064-.55,11.064,0,0,2.088,9.489,5.933,13.531,3.845,4.043,7.152,4.639,7.152,4.639,0,0,2.937,1.299,6.152-3.075,2.134-2.903,4.925-8.63,8.731-12.374,3.307-3.253,8.432-4.061,12.292-1.489,1.466,.977,2.522,2.396,2.675,4.408,.599,7.872-5.994,15.513-5.994,15.513Z" style="fill:#fff; opacity:.7;"></path><g><path d="M196.667,174.747c-1.316-3.432-2.006-6.565-2.006-6.565,0,0,3.616-11.496,.55-11.064-4.62,.651-3.27,8.905-3.27,8.905,0,0-5.508-7.855-7.29-5.36-1.782,2.495,6.423,9.558,6.423,9.558,0,0,.042,3.332,.802,7.827,1.594-1.105,3.322-2.298,4.792-3.301Z" style="fill:#E8FF4D;"></path><path d="M203.297,199.423c1.509,.93,3.023,1.564,4.525,1.954l3.204-15.439c-1.902,1.022-3.28,.414-3.28,.414,0,0-2.647-.485-5.956-3.476l-6.175,7.476c1.776,3.643,4.244,6.954,7.681,9.071Z" style="fill:#E8FF4D; opacity:.4;"></path><path d="M214.638,182.203c1.695,4.461,4.751,12.221,6.599,16.894,4.694-2.668,8.451-6.733,10.365-9.762,0,0,.528-.619,1.262-1.659-5.131-3.601-10.496-10.969-12.613-14.046-2.251,2.927-4.087,6.256-5.612,8.573Z" style="fill:#E8FF4D; opacity:.4;"></path></g></g></g><g id="freepik--Salmon--inject-36"><g><path d="M284.426,335.153s-22.987-9.829-26.549-13.525c-3.358-3.484-4.197-11.712-3.135-14.255,2.467-5.908,39.482-48.255,62.208-40.625,22.727,7.63,23.397,6.851,25.393,12.096,1.995,5.244,1.77,6.136,1.369,6.224-.402,.088-59.286,50.085-59.286,50.085Z" style="fill:#E8FF4D;"></path><path d="M287.092,333.004c-.138,0-.275-.057-.375-.169-1.479-1.672-2.423-3.706-3.336-5.675-.424-.913-.861-1.857-1.345-2.743-1.427-2.619-3.392-4.994-5.291-7.29-2.386-2.884-4.853-5.865-6.323-9.395-1.314-3.157-1.445-6.183-.367-8.518,1.211-2.624,3.85-4.238,5.729-5.225,6.595-3.462,14.08-4.798,21.318-6.09l1.325-.237c4.531-.814,9.214-1.655,13.575-.081,2.703,.977,5.201,2.877,7.424,5.651,1.944,2.424,3.432,5.191,4.869,7.867,.131,.243,.039,.546-.204,.677-.241,.13-.546,.039-.677-.204-1.417-2.636-2.881-5.361-4.768-7.715-2.107-2.628-4.457-4.423-6.984-5.335-4.109-1.486-8.658-.666-13.058,.124l-1.327,.237c-7.164,1.279-14.571,2.602-21.029,5.99-1.75,.919-4.202,2.412-5.285,4.76-1.295,2.804-.316,6.036,.383,7.713,1.412,3.392,3.831,6.314,6.17,9.142,1.93,2.333,3.926,4.745,5.399,7.449,.498,.914,.942,1.873,1.373,2.801,.924,1.991,1.796,3.871,3.179,5.434,.183,.207,.163,.522-.044,.706-.095,.084-.213,.125-.331,.125Z" style="fill:#fff; opacity:.3;"></path><path d="M294.5,325.725c-.227,0-.432-.154-.486-.384-1.236-5.181-2.774-11.627-7.093-15.778-.334-.322-.685-.629-1.033-.937-.713-.626-1.45-1.273-2.062-2.048-1.123-1.424-1.538-3.022-1.141-4.387,.595-2.036,2.667-3.018,4.818-3.773,2.811-.986,5.995-2.105,9.254-2.429,3.623-.358,6.963,.371,9.401,2.054,3.387,2.338,5.012,6.183,6.643,10.599,.096,.259-.036,.546-.296,.642-.256,.097-.547-.037-.642-.296-1.571-4.253-3.127-7.95-6.273-10.122-2.244-1.548-5.354-2.221-8.733-1.88-3.141,.311-6.266,1.408-9.021,2.376-1.899,.668-3.723,1.507-4.189,3.109-.303,1.035,.059,2.339,.965,3.488,.555,.702,1.226,1.292,1.936,1.916,.361,.317,.723,.635,1.067,.967,4.529,4.354,6.105,10.96,7.372,16.267,.064,.269-.102,.538-.37,.603-.039,.01-.078,.014-.116,.014Z" style="fill:#fff; opacity:.3;"></path><path d="M333.786,293.726c-.209,0-.404-.132-.475-.342-1.051-3.146-2.129-6.195-3.751-8.893-1.271-2.116-3.477-4.95-6.763-6.434-2.871-1.298-6.189-1.368-9.114-1.396-12.478,0-22.609,1.341-32.843,4.345-.264,.077-.543-.074-.62-.339-.078-.265,.073-.543,.339-.62,10.328-3.032,20.548-4.386,33.124-4.386,3.03,.002,6.474,.104,9.526,1.484,2.786,1.259,5.279,3.621,7.208,6.83,1.674,2.785,2.772,5.89,3.843,9.092,.087,.262-.055,.545-.316,.633-.053,.018-.105,.025-.158,.025Z" style="fill:#fff; opacity:.3;"></path><path d="M297.138,270.396c-.233,0-.443-.165-.489-.404-.054-.271,.123-.533,.395-.586,8.142-1.594,16.428-1.748,24.624-.462,.273,.043,.46,.299,.417,.571-.044,.273-.306,.456-.571,.417-8.083-1.268-16.25-1.115-24.278,.454-.032,.007-.064,.01-.097,.01Z" style="fill:#fff; opacity:.3;"></path><path d="M269.387,327.74c-.149,0-.297-.066-.396-.194-.79-1.021-2-2.353-3.282-3.764-2.576-2.836-5.496-6.051-6.601-8.431-1.313-2.828-2.652-7.132-1.579-11.58,.065-.268,.335-.428,.604-.369,.269,.065,.434,.335,.369,.604-1.006,4.168,.268,8.241,1.513,10.924,1.041,2.243,3.907,5.397,6.435,8.18,1.296,1.426,2.52,2.773,3.333,3.825,.169,.218,.129,.532-.09,.701-.091,.07-.198,.104-.306,.104Z" style="fill:#fff; opacity:.3;"></path><path d="M342.343,278.844c-.586-1.542-1.062-2.561-2.014-3.429-1.766,.015-14.141,2.287-26.15,11.425-12.009,9.138-31.351,33.276-31.11,35.69,.762,7.615,1.357,12.622,1.357,12.622,0,0,58.884-49.997,59.286-50.085,.402-.088,.626-.98-1.369-6.224Z" style="opacity:.3;"></path><path d="M254.59,307.837c-.81,2.956,.109,10.494,3.287,13.79,3.562,3.696,26.549,13.525,26.549,13.525l-1.537-12.932c-8.326-2.87-22.514-10.886-28.299-14.383Z" style="fill:#fff; opacity:.3;"></path></g><g><path d="M165.197,245.377s22.987-9.829,26.549-13.525c3.358-3.484,4.197-11.711,3.135-14.255-2.467-5.908-39.482-48.255-62.208-40.625-22.727,7.63-23.397,6.851-25.393,12.096s-1.77,6.136-1.369,6.224c.402,.088,59.286,50.085,59.286,50.085Z" style="fill:#E8FF4D;"></path><path d="M162.532,243.229c-.118,0-.236-.042-.331-.125-.207-.183-.227-.499-.043-.706,1.381-1.562,2.254-3.442,3.178-5.433,.43-.928,.875-1.887,1.374-2.802,1.474-2.704,3.469-5.116,5.398-7.449,2.339-2.827,4.757-5.751,6.171-9.143,.699-1.677,1.677-4.908,.382-7.713-1.083-2.347-3.535-3.84-5.285-4.758-6.459-3.39-13.868-4.712-21.032-5.992l-1.324-.237c-4.4-.791-8.95-1.608-13.058-.125-2.528,.913-4.877,2.708-6.984,5.336-1.892,2.359-3.354,5.082-4.769,7.715-.131,.243-.432,.335-.677,.204-.243-.131-.334-.434-.204-.677,1.436-2.673,2.92-5.437,4.869-7.868,2.223-2.773,4.721-4.674,7.424-5.65,4.359-1.575,9.044-.734,13.575,.081l1.323,.237c7.239,1.292,14.725,2.629,21.321,6.09,1.879,.986,4.518,2.602,5.729,5.225,1.078,2.336,.948,5.361-.368,8.517-1.471,3.529-3.938,6.511-6.323,9.396-1.9,2.296-3.864,4.67-5.292,7.29-.483,.886-.921,1.831-1.345,2.744-.913,1.968-1.857,4.002-3.335,5.674-.099,.112-.236,.169-.375,.169Z" style="fill:#fff; opacity:.3;"></path><path d="M155.124,235.949c-.039,0-.078-.004-.117-.014-.269-.064-.434-.334-.37-.603,1.267-5.307,2.842-11.912,7.372-16.267,.345-.331,.704-.647,1.064-.963,.711-.625,1.384-1.216,1.939-1.919,.907-1.148,1.268-2.452,.966-3.488-.468-1.604-2.29-2.442-4.189-3.109-2.756-.968-5.879-2.065-9.022-2.376-3.387-.336-6.489,.332-8.733,1.881-3.146,2.171-4.703,5.869-6.274,10.122-.096,.259-.383,.391-.643,.296-.259-.096-.392-.383-.296-.643,1.631-4.416,3.257-8.26,6.644-10.598,2.438-1.684,5.775-2.414,9.4-2.053,3.263,.323,6.446,1.441,9.254,2.428,2.151,.755,4.224,1.735,4.818,3.773,.398,1.366-.018,2.965-1.141,4.387-.612,.775-1.35,1.424-2.064,2.051-.349,.306-.697,.612-1.031,.933-4.318,4.151-5.856,10.598-7.092,15.778-.055,.229-.26,.384-.486,.384Z" style="fill:#fff; opacity:.3;"></path><path d="M115.837,203.95c-.052,0-.106-.008-.159-.026-.262-.087-.403-.371-.315-.633,1.07-3.201,2.169-6.305,3.843-9.091,1.929-3.209,4.421-5.571,7.208-6.83,3.026-1.368,6.465-1.483,9.451-1.485h.074c12.577,0,22.796,1.354,33.125,4.386,.265,.078,.417,.356,.339,.621-.079,.265-.355,.417-.621,.339-10.234-3.005-20.367-4.346-32.844-4.346h-.074c-2.882,.001-6.194,.11-9.039,1.396-2.601,1.175-4.94,3.4-6.763,6.434-1.622,2.699-2.7,5.747-3.752,8.894-.07,.209-.265,.341-.474,.341Z" style="fill:#fff; opacity:.3;"></path><path d="M152.485,180.621c-.032,0-.064-.003-.097-.009-8.027-1.57-16.196-1.723-24.278-.455-.276,.037-.529-.144-.572-.417-.042-.273,.144-.529,.417-.572,8.199-1.285,16.483-1.13,24.625,.461,.271,.053,.448,.316,.395,.587-.047,.238-.256,.404-.49,.404Z" style="fill:#fff; opacity:.3;"></path><path d="M180.236,237.964c-.107,0-.214-.034-.306-.104-.218-.169-.258-.483-.089-.702,.814-1.052,2.038-2.398,3.333-3.825,2.528-2.783,5.393-5.937,6.434-8.179,1.246-2.683,2.52-6.756,1.514-10.925-.065-.269,.1-.539,.369-.603,.265-.064,.539,.1,.603,.369,1.074,4.449-.266,8.753-1.578,11.58-1.105,2.381-4.025,5.595-6.601,8.43-1.282,1.411-2.493,2.744-3.282,3.765-.099,.127-.247,.194-.396,.194Z" style="fill:#fff; opacity:.3;"></path><path d="M107.281,189.068c.586-1.542,1.062-2.561,2.014-3.428,1.766,.015,14.141,2.287,26.15,11.425,12.009,9.138,31.351,33.276,31.11,35.69-.762,7.615-1.357,12.622-1.357,12.622,0,0-58.884-49.997-59.286-50.085-.402-.088-.626-.98,1.369-6.224Z" style="opacity:.3;"></path><path d="M195.034,218.062c.81,2.956-.109,10.493-3.287,13.79-3.562,3.696-26.549,13.525-26.549,13.525l1.537-12.932c8.326-2.87,22.514-10.886,28.299-14.383Z" style="fill:#fff; opacity:.3;"></path></g><g><path d="M295.578,132.732s6.288-24.197,5.544-29.275c-.701-4.787-6.696-10.485-9.358-11.201-6.183-1.663-62.325,1.709-70.194,24.354-7.868,22.645-8.895,22.699-5.967,27.486,2.927,4.787,3.77,5.154,4.086,4.891s75.889-16.254,75.889-16.254Z" style="fill:#E8FF4D;"></path><path d="M244.708,143.733c-.191,0-.374-.11-.457-.296-1.236-2.771-2.515-5.636-3.245-8.665-.834-3.455-.81-6.594,.072-9.33,1.422-4.414,4.954-7.604,8.369-10.688l.999-.904c5.45-4.935,11.087-10.038,17.859-13.137,1.929-.883,4.817-1.983,7.639-1.335,2.506,.576,4.819,2.53,6.512,5.501,1.892,3.322,2.741,7.098,3.563,10.749,.653,2.908,1.33,5.914,2.529,8.646,.405,.923,.884,1.848,1.347,2.741,.998,1.927,2.03,3.919,2.448,6.111,.052,.271-.126,.533-.397,.585-.276,.05-.533-.127-.585-.397-.391-2.049-1.344-3.89-2.354-5.838-.47-.908-.956-1.846-1.375-2.799-1.237-2.821-1.925-5.875-2.59-8.829-.805-3.58-1.638-7.281-3.456-10.473-.899-1.579-2.856-4.331-5.867-5.022-2.521-.581-5.201,.447-6.998,1.27-6.632,3.035-12.21,8.085-17.604,12.97l-1,.904c-3.317,2.996-6.747,6.094-8.087,10.252-.824,2.558-.842,5.515-.052,8.789,.709,2.94,1.968,5.763,3.186,8.492,.113,.252,0,.548-.253,.66-.066,.03-.135,.043-.203,.043Z" style="fill:#fff; opacity:.3;"></path><path d="M257.67,139.193c-.166,0-.329-.083-.424-.235-2.495-3.991-4.542-7.629-4.318-11.739,.16-2.959,1.626-6.046,4.127-8.692,2.253-2.384,5.084-4.217,7.582-5.835,1.915-1.239,3.961-2.276,5.932-1.502,1.324,.521,2.335,1.828,2.773,3.586,.238,.959,.3,1.94,.359,2.889,.029,.462,.058,.925,.107,1.384,.643,5.957,4.801,11.117,8.143,15.263,.173,.215,.139,.53-.076,.703-.213,.173-.53,.14-.703-.075-3.423-4.249-7.684-9.536-8.357-15.784-.051-.474-.081-.952-.111-1.429-.06-.946-.115-1.839-.332-2.71-.354-1.419-1.165-2.502-2.168-2.897-1.552-.61-3.333,.317-5.023,1.412-2.45,1.587-5.229,3.386-7.398,5.682-2.339,2.474-3.708,5.335-3.855,8.059-.207,3.818,1.765,7.311,4.168,11.155,.146,.234,.075,.543-.159,.689-.082,.052-.174,.076-.265,.076Z" style="fill:#fff; opacity:.3;"></path><path d="M232.214,146.626c-.161,0-.32-.078-.416-.222-1.878-2.807-3.662-5.577-4.84-8.603-1.359-3.489-1.702-6.906-.993-9.88,.771-3.231,2.783-6.022,4.608-8.384,7.711-9.979,15.045-17.251,23.78-23.577,.22-.162,.535-.113,.698,.111,.162,.224,.111,.537-.112,.698-8.653,6.268-15.924,13.479-23.575,23.379-1.762,2.28-3.702,4.967-4.427,8.004-.662,2.776-.332,5.987,.952,9.286,1.143,2.936,2.823,5.545,4.739,8.41,.154,.229,.092,.54-.138,.693-.085,.057-.182,.084-.277,.084Z" style="fill:#fff; opacity:.3;"></path><path d="M220.859,122.426c-.082,0-.164-.02-.24-.062-.242-.133-.331-.437-.197-.679,3.997-7.271,9.188-13.73,15.43-19.197,.208-.181,.524-.162,.706,.046,.182,.208,.161,.524-.046,.706-6.154,5.39-11.272,11.758-15.213,18.926-.091,.166-.262,.259-.438,.259Z" style="fill:#fff; opacity:.3;"></path><path d="M298.52,116.495c-.223,0-.426-.149-.484-.375-.334-1.288-.651-3.081-.986-4.979-.654-3.702-1.396-7.896-2.533-10.091-1.36-2.627-3.803-6.126-7.715-7.881-.253-.113-.365-.409-.252-.661s.408-.365,.66-.251c4.176,1.872,6.762,5.565,8.195,8.333,1.206,2.331,1.962,6.605,2.629,10.377,.332,1.878,.646,3.652,.971,4.902,.069,.267-.092,.54-.358,.609-.042,.011-.085,.016-.126,.016Z" style="fill:#fff; opacity:.3;"></path><path d="M215.603,144.096c-.86-1.407-1.376-2.407-1.48-3.691,1.092-1.388,10.46-9.786,25.036-13.695,14.576-3.909,45.503-4.441,47.264-2.773,5.558,5.262,9.154,8.795,9.154,8.795,0,0-75.573,15.991-75.889,16.254-.316,.264-1.158-.104-4.086-4.891Z" style="opacity:.3;"></path><path d="M292.224,92.42c2.834,1.167,8.234,6.506,8.897,11.037,.744,5.079-5.544,29.275-5.544,29.275l-9.289-9.127c2.824-8.342,5.163-24.469,5.936-31.185Z" style="fill:#fff; opacity:.3;"></path></g></g><g id="freepik--Eggs--inject-36"><g><g><path d="M369.01,107.321c-.084-.384-.183-.765-.296-1.144-2.107-7.052-9.411-11.053-16.692-9.983-10.159,1.493-19.674,8.294-24.139,17.542-2.119,4.389-3.183,9.361-2.526,14.19,.657,4.829,3.134,9.481,7.087,12.333,5.979,4.314,14.537,3.862,20.911,.157,6.374-3.705,10.771-10.148,13.523-16.987,2.053-5.102,3.31-10.737,2.132-16.109Z" style="fill:#E8FF4D;"></path><g style="opacity:.6;"><path d="M369.01,107.321c-.084-.384-.183-.765-.296-1.144-2.107-7.052-9.411-11.053-16.692-9.983-10.159,1.493-19.674,8.294-24.139,17.542-2.119,4.389-3.183,9.361-2.526,14.19,.657,4.829,3.134,9.481,7.087,12.333,5.979,4.314,14.537,3.862,20.911,.157,6.374-3.705,10.771-10.148,13.523-16.987,2.053-5.102,3.31-10.737,2.132-16.109Z" style="fill:#fff;"></path></g><g style="opacity:.3;"><path d="M353.411,100.312c-1.751-1.595-10.712,2.318-14.206,6.075-.71,.764-1.389,1.594-1.723,2.582-.334,.988-.263,2.169,.416,2.961,.64,.747,1.704,1.018,2.684,.934,.98-.084,1.905-.474,2.811-.858,2.624-1.115,5.248-2.229,7.872-3.344,1.658-.704,3.493-1.592,4.063-3.301,.604-1.808-.51-3.764-1.918-5.05Z" style="fill:#fff;"></path></g></g><circle cx="344.5" cy="123.401" r="12.783" transform="translate(145.645 430.589) rotate(-76.791)" style="fill:#E8FF4D;"></circle></g><g><g><path d="M163.24,228.343c-.376-.114-.757-.213-1.143-.299-7.184-1.6-14.239,2.826-16.856,9.705-3.65,9.597-2.352,21.221,3.544,29.628,2.798,3.99,6.62,7.344,11.157,9.125,4.537,1.781,9.806,1.887,14.223-.173,6.681-3.116,10.46-10.809,10.334-18.18-.126-7.371-3.607-14.352-8.236-20.09-3.453-4.28-7.76-8.126-13.024-9.716Z" style="fill:#E8FF4D;"></path><g style="opacity:.6;"><path d="M163.24,228.343c-.376-.114-.757-.213-1.143-.299-7.184-1.6-14.239,2.826-16.856,9.705-3.65,9.597-2.352,21.221,3.544,29.628,2.798,3.99,6.62,7.344,11.157,9.125,4.537,1.781,9.806,1.887,14.223-.173,6.681-3.116,10.46-10.809,10.334-18.18-.126-7.371-3.607-14.352-8.236-20.09-3.453-4.28-7.76-8.126-13.024-9.716Z" style="fill:#fff;"></path></g><g style="opacity:.3;"><path d="M149.515,238.543c-2.246,.752-3.2,10.483-1.623,15.365,.32,.992,.714,1.99,1.414,2.763,.7,.773,1.765,1.287,2.788,1.081,.964-.195,1.72-.991,2.124-1.888,.404-.897,.515-1.894,.621-2.872,.306-2.835,.613-5.669,.92-8.504,.194-1.791,.314-3.825-.9-5.157-1.284-1.409-3.535-1.39-5.344-.788Z" style="fill:#fff;"></path></g></g><circle cx="165.327" cy="257.582" r="12.783" transform="translate(-63.39 54.185) rotate(-15.659)" style="fill:#E8FF4D;"></circle></g></g><g id="freepik--Brocoli--inject-36"><g><g id="freepik--freepik--Broccoli--inject-2--inject-36"><path d="M220.384,281.087c-1.009-4.044-5.251-6.634-9.476-5.786h-.007c-.782,.158-1.53,.431-2.216,.812l-.062-.354c-1.424-5.707-7.411-9.362-13.373-8.165-3.869,.777-6.948,3.476-8.07,7.076-1.862-.566-3.834-.67-5.723-.301-5.959,1.215-9.629,6.814-8.21,12.522,.342,1.315,.945,2.561,1.776,3.671-2.904,1.621-4.335,4.86-3.55,8.035,.564,2.257,2.19,4.165,4.402,5.167-2.711,3.155-2.158,7.875,1.235,10.542,1.455,1.144,3.276,1.77,5.137,1.768,4.713,4.166,11.98,4.002,16.232-.368,1.398-1.436,2.347-3.218,2.747-5.155,3.855,1.986,8.586,.666,10.568-2.947,.584-1.066,.882-2.258,.868-3.474,1.024,.102,2.055,.047,3.053-.162,5.415-1.087,8.757-6.17,7.465-11.353-.563-2.259-1.959-4.271-3.931-5.667,1.225-1.695,1.637-3.82,1.136-5.861Z" style="fill:#E8FF4D;"></path><path d="M215.105,296.968c-3.971-10.083-14.218-5.469-14.218-5.469-10.085-5.398-12.066,2.927-12.066,2.927-9.379,.496-4.57,8.765-4.57,8.765l-1.935,7.511,4.917,7.386c.336-.039,.673-.079,1.016-.145,3.81-.767,6.739-3.591,7.495-7.227,3.359,1.731,7.483,.581,9.21-2.569,.509-.929,.769-1.968,.756-3.028,.893,.089,1.791,.041,2.661-.141,3.971-.808,6.76-4.126,6.734-8.011Z" style="isolation:isolate; opacity:.1;"></path><path d="M205.824,293.821c-2.351-4.727-8.235-6.851-13.141-4.744-1.769,.76-3.245,2.011-4.238,3.593-6.283-3.48-14.188-1.88-18.199,3.683-6.379-4.188-14.978-2.755-19.206,3.199-2.689,3.788-3.052,8.695-.956,12.928,.754,1.562,1.825,2.974,3.149,4.153-3.937,3.466-4.086,9.392-.331,13.234,1.333,1.364,3.047,2.336,4.929,2.796-2.403,4.578-.395,10.245,4.486,12.659,2.667,1.319,5.785,1.437,8.484,.322,1.147-.496,2.181-1.194,3.048-2.059,7.177,3.445,15.772,.779,19.197-5.955,1.243-2.444,1.675-5.208,1.239-7.933l.564-.208c3.496-1.499,5.687-4.833,5.597-8.52,.274-.075,.542-.167,.802-.275,4.906-2.089,6.997-7.609,4.675-12.34-.646-1.311-1.6-2.47-2.785-3.385,3.49-2.623,4.596-7.216,2.685-11.15Z" style="fill:#E8FF4D;"></path><path d="M205.824,293.821c-2.351-4.727-8.235-6.851-13.141-4.744-1.769,.76-3.245,2.011-4.238,3.593-6.283-3.48-14.188-1.88-18.199,3.683-6.379-4.188-14.978-2.755-19.206,3.199-2.689,3.788-3.052,8.695-.956,12.928,.754,1.562,1.825,2.974,3.149,4.153-3.937,3.466-4.086,9.392-.331,13.234,1.333,1.364,3.047,2.336,4.929,2.796-2.403,4.578-.395,10.245,4.486,12.659,2.667,1.319,5.785,1.437,8.484,.322,1.147-.496,2.181-1.194,3.048-2.059,7.177,3.445,15.772,.779,19.197-5.955,1.243-2.444,1.675-5.208,1.239-7.933l.564-.208c3.496-1.499,5.687-4.833,5.597-8.52,.274-.075,.542-.167,.802-.275,4.906-2.089,6.997-7.609,4.675-12.34-.646-1.311-1.6-2.47-2.785-3.385,3.49-2.623,4.596-7.216,2.685-11.15Z" style="fill:#fff; isolation:isolate; opacity:.2;"></path><path d="M186.658,303.741s-7.383-2.476-11.006,2.15c-4.862,6.211,2.958,15.339,2.958,15.339,0,0-9.366,7.179-6.527,13.484,2.839,6.304,10.558,5.058,10.558,5.058,5.008-2.129,7.867-7.168,7.034-12.401l.491-.182c3.047-1.306,4.956-4.212,4.878-7.425,.239-.066,.472-.146,.699-.24,4.275-1.821,6.098-6.632,4.075-10.755-.563-1.143-1.394-2.153-2.428-2.95,3.047-2.291,4.007-6.303,2.329-9.734-8.581-8.82-13.062,7.656-13.062,7.656Z" style="isolation:isolate; opacity:.1;"></path><path d="M176.055,335.177s20.032-5.65,43.713,19.55c0,0,19.956,2.074,18.129-20.535,0,0-31.182-12.023-29.169-40.672-2.117-.853-4.525-.522-6.24,.857,0,0,5.355,15.186,1.749,17.786-3.605,2.6-8.077-13.423-8.077-13.423,0,0-6.155,1.215-6.922,4.826,0,0,8.157,9.313,5.115,13.584-3.042,4.271-12.805-3.298-12.805-3.298-2.159,1.531-3.2,4.107-2.697,6.671,0,0,11.817,3.968,10.729,6.292-1.088,2.324-13.315,.869-13.315,.869,0,0-2.526,2.612-.21,7.493Z" style="fill:#E8FF4D;"></path><path d="M176.055,335.177s20.032-5.65,43.713,19.55c0,0,19.956,2.074,18.129-20.535,0,0-31.182-12.023-29.169-40.672-2.117-.853-4.525-.522-6.24,.857,0,0,5.355,15.186,1.749,17.786-3.605,2.6-8.077-13.423-8.077-13.423,0,0-6.155,1.215-6.922,4.826,0,0,8.157,9.313,5.115,13.584-3.042,4.271-12.805-3.298-12.805-3.298-2.159,1.531-3.2,4.107-2.697,6.671,0,0,11.817,3.968,10.729,6.292-1.088,2.324-13.315,.869-13.315,.869,0,0-2.526,2.612-.21,7.493Z" style="fill:#fff; isolation:isolate; opacity:.5;"></path><path d="M237.873,334.227c-21.831,3.422-18.129,20.535-18.129,20.535,0,0,19.98,2.038,18.129-20.535Z" style="fill:#fff; isolation:isolate; opacity:.3;"></path><path d="M217.671,340.995s-15.077-14.624-22.926-14.601c-7.849,.023,12.092,6.587,22.926,14.601Z" style="isolation:isolate; opacity:.1;"></path><path d="M217.291,331.936s-14.98-14.137-12.209-16.489c2.771-2.353,3.636,5.627,12.209,16.489Z" style="isolation:isolate; opacity:.1;"></path><path d="M206.041,327.666s-10.897-6.91-9.374-8.562c1.523-1.652,9.374,8.562,9.374,8.562Z" style="isolation:isolate; opacity:.1;"></path><path d="M221.724,335.794c-7.09-2.75,1.678,8.624-4.645,7.499-3.686-.655-3.17,3.384-2.068,6.763,1.561,1.424,3.15,2.968,4.729,4.663,0,0,19.956,2.074,18.129-20.535,0,0-18.069-6.979-25.813-22.962h0c3.266,11.092,16.758,27.323,9.668,24.573Z" style="isolation:isolate; opacity:.1;"></path></g><g id="freepik--freepik--Broccoli--inject-2-2--inject-36"><path d="M324.269,232.57c4.167,.046,7.745-3.405,7.992-7.707v-.007c.047-.796-.029-1.589-.224-2.349l.358,.029c5.881,.064,10.931-4.806,11.278-10.877,.226-3.94-1.608-7.601-4.807-9.596,1.018-1.659,1.617-3.54,1.738-5.462,.329-6.072-4.16-11.038-10.042-11.107-1.358-.002-2.716,.267-4.001,.791-.834-3.219-3.607-5.422-6.877-5.464-2.326-.024-4.583,1.067-6.111,2.954-2.368-3.421-7.074-4.078-10.512-1.468-1.474,1.119-2.54,2.722-3.008,4.524-5.222,3.508-6.899,10.581-3.745,15.799,1.037,1.715,2.521,3.084,4.294,3.96-2.895,3.228-2.814,8.139,.182,10.97,.883,.835,1.962,1.425,3.142,1.718-.357,.965-.565,1.977-.615,2.994-.316,5.514,3.758,10.032,9.099,10.091,2.328,.026,4.628-.817,6.477-2.372,1.331,1.614,3.282,2.549,5.384,2.58Z" style="fill:#E8FF4D;"></path><path d="M310.237,223.45c10.759-1.295,8.883-12.375,8.883-12.375,7.771-8.394,.216-12.414,.216-12.414,1.889-9.201-7.325-6.636-7.325-6.636l-6.779-3.77-8.389,2.892c-.047,.335-.094,.671-.117,1.019-.22,3.881,1.772,7.428,5.099,9.078-2.523,2.813-2.452,7.094,.158,9.561,.77,.727,1.71,1.241,2.738,1.497-.311,.842-.492,1.723-.536,2.61-.222,4.047,2.284,7.584,6.05,8.539Z" style="isolation:isolate; opacity:.1;"></path><path d="M315.626,215.266c5.167-1.081,8.709-6.237,7.91-11.516-.288-1.904-1.126-3.647-2.406-5.008,4.954-5.2,5.403-13.253,1.034-18.539,5.664-5.114,6.45-13.796,1.757-19.391-2.985-3.559-7.642-5.15-12.267-4.191-1.702,.335-3.339,1.014-4.814,1.998-2.359-4.685-8.055-6.326-12.721-3.664-1.657,.945-3.03,2.358-3.95,4.063-3.822-3.482-9.813-2.97-13.382,1.143-1.95,2.248-2.852,5.234-2.455,8.128,.19,1.235,.604,2.412,1.222,3.469-5.147,6.074-4.739,15.063,.911,20.079,2.051,1.821,4.616,2.937,7.363,3.203l.059,.598c.567,3.761,3.24,6.723,6.83,7.568,.004,.284,.025,.567,.064,.846,.782,5.274,5.595,8.693,10.758,7.641,1.432-.294,2.794-.924,3.979-1.84,1.656,4.04,5.821,6.27,10.11,5.415Z" style="fill:#E8FF4D;"></path><path d="M315.626,215.266c5.167-1.081,8.709-6.237,7.91-11.516-.288-1.904-1.126-3.647-2.406-5.008,4.954-5.2,5.403-13.253,1.034-18.539,5.664-5.114,6.45-13.796,1.757-19.391-2.985-3.559-7.642-5.15-12.267-4.191-1.702,.335-3.339,1.014-4.814,1.998-2.359-4.685-8.055-6.326-12.721-3.664-1.657,.945-3.03,2.358-3.95,4.063-3.822-3.482-9.813-2.97-13.382,1.143-1.95,2.248-2.852,5.234-2.455,8.128,.19,1.235,.604,2.412,1.222,3.469-5.147,6.074-4.739,15.063,.911,20.079,2.051,1.821,4.616,2.937,7.363,3.203l.059,.598c.567,3.761,3.24,6.723,6.83,7.568,.004,.284,.025,.567,.064,.846,.782,5.274,5.595,8.693,10.758,7.641,1.432-.294,2.794-.924,3.979-1.84,1.656,4.04,5.821,6.27,10.11,5.415Z" style="fill:#fff; isolation:isolate; opacity:.2;"></path><path d="M310.87,194.215s4.261-6.518,.7-11.192c-4.781-6.273-15.588-1.013-15.588-1.013,0,0-4.58-10.876-11.397-9.722-6.817,1.154-7.561,8.938-7.561,8.938,.794,5.384,4.948,9.422,10.221,9.939l.051,.521c.494,3.278,2.823,5.86,5.952,6.596,.003,.247,.022,.494,.056,.737,.681,4.597,4.876,7.576,9.376,6.66,1.248-.256,2.435-.805,3.467-1.604,1.447,3.527,5.086,5.469,8.83,4.713,10.701-6.074-4.107-14.572-4.107-14.572Z" style="isolation:isolate; opacity:.1;"></path><path d="M283.133,176.014s.406,20.81-29.959,37.356c0,0-7.048,18.785,15.289,22.729,0,0,19.51-27.133,46.722-17.947,1.36-1.833,1.648-4.247,.747-6.254,0,0-16.046,1.344-17.651-2.801-1.605-4.145,15.028-4.424,15.028-4.424,0,0,.379-6.262-2.921-7.917,0,0-11.072,5.54-14.436,1.517-3.364-4.023,6.427-11.557,6.427-11.557-.936-2.475-3.165-4.134-5.773-4.295,0,0-6.825,10.431-8.799,8.792-1.974-1.64,2.523-13.103,2.523-13.103,0,0-1.889-3.104-7.197-2.097Z" style="fill:#E8FF4D;"></path><path d="M283.133,176.014s.406,20.81-29.959,37.356c0,0-7.048,18.785,15.289,22.729,0,0,19.51-27.133,46.722-17.947,1.36-1.833,1.648-4.247,.747-6.254,0,0-16.046,1.344-17.651-2.801-1.605-4.145,15.028-4.424,15.028-4.424,0,0,.379-6.262-2.921-7.917,0,0-11.072,5.54-14.436,1.517-3.364-4.023,6.427-11.557,6.427-11.557-.936-2.475-3.165-4.134-5.773-4.295,0,0-6.825,10.431-8.799,8.792-1.974-1.64,2.523-13.103,2.523-13.103,0,0-1.889-3.104-7.197-2.097Z" style="fill:#fff; isolation:isolate; opacity:.5;"></path><path d="M268.434,236.066c2.204-21.987-15.289-22.729-15.289-22.729,0,0-7.019,18.817,15.289,22.729Z" style="fill:#fff; isolation:isolate; opacity:.3;"></path><path d="M266.989,214.81s17.958-10.893,19.919-18.493c1.961-7.6-9.428,10.035-19.919,18.493Z" style="isolation:isolate; opacity:.1;"></path><path d="M275.851,216.731s17.463-10.923,19.039-7.648c1.577,3.275-6.363,2.096-19.039,7.648Z" style="isolation:isolate; opacity:.1;"></path><path d="M282.824,206.925s9.438-8.798,10.652-6.907c1.214,1.891-10.652,6.907-10.652,6.907Z" style="isolation:isolate; opacity:.1;"></path><path d="M270.998,220.045c4.452-6.165-8.768-.555-6.083-6.389,1.565-3.401-2.474-3.922-6.021-3.71-1.772,1.15-3.667,2.298-5.706,3.398,0,0-7.048,18.784,15.289,22.729,0,0,11.318-15.72,28.739-19.175h0c-11.557,.358-30.671,9.311-26.218,3.146Z" style="isolation:isolate; opacity:.1;"></path></g></g></g><g id="freepik--Tomatoes--inject-36"><g><path d="M171.805,117.263c-.971,15.4-14.4,27.088-29.993,26.104-15.593-.984-27.446-14.266-26.475-29.666,.971-15.401,14.4-27.088,29.993-26.104,15.593,.984,27.446,14.266,26.475,29.666Z" style="fill:#E8FF4D;"></path><path d="M171.805,117.263c-.971,15.4-14.4,27.088-29.993,26.104-15.593-.984-27.446-14.266-26.475-29.666,.971-15.401,14.4-27.088,29.993-26.104,15.593,.984,27.446,14.266,26.475,29.666Z" style="opacity:.2;"></path><g style="opacity:.2;"><path d="M136.152,106.772c1.851,3.001,2.741,4.656,3.911,6.933,1.978,3.849,4.223,7.151,6.201,11,.957,1.862,1.941,3.841,1.829,5.943-.15,2.804-2.341,5.216-4.937,6.149-2.596,.933-5.49,.585-8.084-.34-6.068-2.166-10.914-7.583-12.479-13.952-1.565-6.368-3.826-14.375,2.406-20.651,0,0,3.428-4.628,6.515-1.092,3.087,3.536,4.637,6.011,4.637,6.011Z"></path></g><g style="opacity:.2;"><path d="M143.362,104.432c1.182,3.132,1.909,4.76,2.941,6.958,1.744,3.715,2.924,7.321,4.669,11.036,.844,1.797,1.761,3.682,3.405,4.801,2.194,1.492,5.277,1.202,7.483-.245,2.206-1.447,3.623-3.855,4.432-6.365,1.891-5.873,.631-12.675-3.247-17.519-3.878-4.843-9.445-10.802-16.443-10.053,0,0-7.323,.497-5.843,4.674,1.167,3.295,2.604,6.712,2.604,6.712Z"></path></g><path d="M133.347,110.652c.504-.591,.188-1.528-.557-1.748-.955-.281-2.428-.379-3.269-.418-1.208-.055-2.46,.172-3.468,.84-.401,.265-.764,.605-.983,1.033-.218,.428-.277,.953-.081,1.392,.23,.516,.772,.839,1.326,.948,.554,.109,1.126,.036,1.685-.044,1.048-.15,2.102-.328,3.089-.713,.644-.251,1.707-.643,2.257-1.289Z" style="fill:#E8FF4D;"></path><path d="M135.481,118.03c.242-.738-.405-1.486-1.178-1.406-.991,.102-2.391,.569-3.183,.852-1.139,.407-2.211,1.092-2.891,2.092-.27,.397-.478,.85-.518,1.328-.04,.479,.105,.987,.452,1.319,.408,.39,1.032,.483,1.586,.374,.554-.109,1.056-.393,1.543-.679,.913-.537,1.821-1.101,2.588-1.831,.501-.476,1.336-1.242,1.6-2.049Z" style="fill:#E8FF4D;"></path><path d="M141.246,124.222c-.112-.691-.94-1.022-1.526-.638-.751,.492-1.678,1.447-2.195,2.002-.743,.798-1.317,1.79-1.448,2.873-.052,.43-.031,.878,.136,1.278,.167,.4,.493,.747,.909,.868,.489,.143,1.027-.041,1.425-.358,.398-.317,.683-.753,.954-1.183,.509-.808,1.002-1.636,1.313-2.538,.204-.589,.554-1.548,.432-2.303Z" style="fill:#E8FF4D;"></path><path d="M153.436,118.881c-.583,.513-.405,1.486,.301,1.81,.905,.415,2.349,.723,3.175,.882,1.188,.227,2.459,.181,3.553-.335,.435-.205,.843-.489,1.12-.882,.277-.392,.41-.904,.28-1.366-.154-.544-.644-.94-1.177-1.128-.533-.187-1.11-.197-1.674-.198-1.059-.001-2.128,.024-3.16,.264-.673,.156-1.781,.392-2.418,.953Z" style="fill:#E8FF4D;"></path><path d="M152.381,111.273c-.345,.696,.188,1.529,.964,1.56,.995,.041,2.448-.221,3.273-.387,1.186-.24,2.344-.764,3.161-1.656,.324-.355,.595-.772,.703-1.24,.108-.468,.037-.992-.259-1.37-.348-.445-.952-.626-1.517-.597-.564,.029-1.101,.238-1.624,.452-.981,.4-1.96,.829-2.824,1.441-.564,.4-1.5,1.038-1.877,1.798Z" style="fill:#E8FF4D;"></path><path d="M147.562,104.32c.012,.7,.784,1.146,1.419,.849,.814-.38,1.868-1.191,2.459-1.667,.85-.683,1.56-1.583,1.844-2.636,.113-.418,.156-.865,.049-1.284s-.381-.809-.775-.99c-.463-.212-1.022-.106-1.462,.15-.44,.257-.783,.647-1.113,1.035-.619,.727-1.226,1.476-1.663,2.325-.286,.554-.77,1.453-.757,2.218Z" style="fill:#E8FF4D;"></path><g style="opacity:.3;"><path d="M125.299,98.609c1.038,.813,2.506-.791,3.315-1.832,2.021-2.6,4.214-3.421,7.213-4.68,2.735-1.148,6.173-1.308,9.265-.858,.156,.023,1.056,.181,1.646,.288l3.158,.522c2.697,.422,1.664-1.112,1.664-1.112-3.849-1.952-8.358-2.324-12.302-1.76-3.944,.564-7.461,1.32-11.245,3.901-1.021,.697-2.001,1.628-2.694,2.653s-.994,2.116-.02,2.879Z" style="fill:#fff;"></path></g><path d="M121.621,100.366c-.124-.69,.334-1.349,1.024-1.474,.69-.124,1.349,.334,1.473,1.024,.124,.69-.334,1.35-1.024,1.474s-1.349-.334-1.473-1.024Z" style="fill:#fff; opacity:.3;"></path></g><g><ellipse cx="254.939" cy="254.148" rx="28.29" ry="27.941" style="fill:#E8FF4D;"></ellipse><ellipse cx="254.939" cy="254.148" rx="28.29" ry="27.941" style="opacity:.2;"></ellipse><g style="opacity:.2;"><path d="M246.986,245.923c2.036,2.879,3.028,4.474,4.34,6.673,2.217,3.716,4.665,6.871,6.882,10.587,1.072,1.798,2.179,3.711,2.199,5.816,.027,2.808-2.008,5.353-4.54,6.447-2.532,1.094-5.443,.93-8.089,.169-6.193-1.779-11.369-6.881-13.332-13.138-1.963-6.257-4.724-14.105,1.101-20.762,0,0,3.13-4.835,6.433-1.5,3.304,3.334,5.006,5.707,5.006,5.707Z"></path></g><g style="opacity:.2;"><path d="M254.035,243.134c1.377,3.052,2.205,4.63,3.374,6.759,1.975,3.598,3.379,7.122,5.354,10.72,.955,1.741,1.989,3.564,3.701,4.577,2.283,1.351,5.342,.867,7.452-.716,2.11-1.583,3.374-4.075,4.022-6.631,1.518-5.98-.169-12.69-4.343-17.28-4.175-4.59-10.106-10.186-17.043-8.997,0,0-7.277,.957-5.537,5.033,1.372,3.215,3.021,6.535,3.021,6.535Z"></path></g><path d="M244.431,249.971c.466-.622,.092-1.537-.666-1.709-.971-.22-2.447-.226-3.289-.211-1.209,.021-2.444,.327-3.408,1.057-.383,.29-.725,.652-.916,1.093-.191,.441-.216,.969,.007,1.395,.262,.5,.823,.788,1.383,.862,.56,.074,1.126-.035,1.679-.15,1.037-.216,2.077-.46,3.038-.906,.627-.291,1.663-.749,2.171-1.429Z" style="fill:#E8FF4D;"></path><path d="M247.025,257.201c.195-.752-.498-1.457-1.264-1.329-.983,.164-2.35,.718-3.123,1.051-1.111,.478-2.138,1.229-2.754,2.269-.245,.414-.424,.878-.433,1.358-.01,.48,.167,.978,.535,1.288,.432,.364,1.061,.417,1.607,.274,.546-.144,1.029-.459,1.497-.775,.878-.593,1.748-1.213,2.468-1.99,.47-.507,1.255-1.324,1.468-2.145Z" style="fill:#E8FF4D;"></path><path d="M253.168,263.017c-.155-.683-1.003-.96-1.563-.54-.719,.539-1.584,1.549-2.065,2.136-.691,.843-1.202,1.87-1.264,2.958-.025,.433,.025,.878,.216,1.267,.191,.389,.539,.714,.962,.809,.497,.112,1.022-.105,1.4-.447,.378-.342,.634-.794,.877-1.241,.457-.839,.897-1.696,1.151-2.616,.166-.601,.456-1.58,.286-2.326Z" style="fill:#E8FF4D;"></path><path d="M264.998,256.92c-.55,.549-.311,1.508,.414,1.787,.93,.358,2.39,.574,3.225,.68,1.2,.152,2.465,.026,3.524-.558,.421-.232,.811-.541,1.063-.95,.252-.409,.353-.928,.193-1.381-.188-.533-.702-.898-1.246-1.051-.544-.153-1.12-.127-1.683-.092-1.057,.065-2.122,.158-3.137,.462-.662,.198-1.753,.504-2.354,1.103Z" style="fill:#E8FF4D;"></path><path d="M263.466,249.394c-.301,.716,.284,1.514,1.061,1.497,.996-.022,2.429-.374,3.242-.593,1.168-.314,2.292-.91,3.05-1.852,.301-.374,.545-.808,.623-1.282,.078-.474-.025-.992-.345-1.351-.375-.422-.99-.565-1.551-.501-.561,.064-1.084,.307-1.593,.553-.954,.461-1.904,.95-2.728,1.616-.538,.435-1.431,1.131-1.76,1.913Z" style="fill:#E8FF4D;"></path><path d="M258.219,242.758c.056,.698,.855,1.094,1.47,.758,.788-.43,1.789-1.306,2.349-1.818,.805-.735,1.458-1.678,1.675-2.747,.086-.425,.101-.873-.032-1.285-.134-.412-.431-.784-.836-.939-.475-.182-1.027-.042-1.449,.242-.422,.284-.741,.695-1.046,1.103-.572,.764-1.13,1.55-1.514,2.425-.25,.571-.677,1.498-.616,2.261Z" style="fill:#E8FF4D;"></path><g style="opacity:.3;"><path d="M235.64,238.459c1.087,.746,2.451-.947,3.193-2.037,1.853-2.722,3.99-3.68,6.904-5.125,2.658-1.318,6.078-1.694,9.193-1.44,.157,.013,1.065,.114,1.661,.183l3.184,.322c2.719,.252,1.591-1.215,1.591-1.215-3.964-1.706-8.487-1.793-12.388-.982s-7.364,1.787-10.977,4.601c-.976,.76-1.895,1.751-2.522,2.817-.627,1.066-.859,2.175,.161,2.874Z" style="fill:#fff;"></path></g><path d="M232.081,240.444c-.167-.68,.249-1.368,.929-1.535,.681-.167,1.368,.249,1.535,.929,.167,.68-.249,1.368-.929,1.535s-1.368-.249-1.535-.929Z" style="fill:#fff; opacity:.3;"></path></g><g><ellipse cx="393.211" cy="198.143" rx="27.941" ry="28.29" transform="translate(-43.516 254.223) rotate(-34.061)" style="fill:#E8FF4D;"></ellipse><ellipse cx="393.211" cy="198.143" rx="27.941" ry="28.29" transform="translate(-43.516 254.223) rotate(-34.061)" style="opacity:.2;"></ellipse><g style="opacity:.2;"><path d="M395.57,186.947c-1.244,3.299-2.01,5.015-3.097,7.333-1.837,3.918-3.079,7.713-4.916,11.631-.889,1.895-1.854,3.884-3.586,5.08-2.311,1.595-5.559,1.335-7.884-.149-2.325-1.485-3.819-3.988-4.671-6.606-1.995-6.127-.668-13.273,3.416-18.404,4.084-5.131,9.039-11.814,17.816-10.718,0,0,5.758-.116,4.846,4.489-.912,4.604-1.924,7.344-1.924,7.344Z"></path></g><g style="opacity:.2;"><path d="M401.829,191.224c-1.757,2.85-2.6,4.42-3.709,6.581-1.874,3.651-4.007,6.789-5.881,10.44-.907,1.766-1.838,3.644-1.719,5.63,.16,2.648,2.274,4.911,4.767,5.773,2.493,.862,5.266,.512,7.746-.382,5.804-2.092,10.418-7.248,11.881-13.277,1.464-6.029,2.778-14.077-2.093-19.159,0,0-4.869-5.492-7.271-1.768-1.894,2.938-3.721,6.163-3.721,6.163Z"></path></g><path d="M390.785,187.098c.776,.037,1.325-.785,1.043-1.509-.361-.928-1.184-2.154-1.667-2.843-.695-.99-1.64-1.841-2.784-2.232-.455-.155-.946-.235-1.418-.146-.472,.089-.923,.363-1.151,.787-.268,.497-.192,1.124,.061,1.629,.253,.505,.66,.914,1.065,1.307,.76,.738,1.545,1.463,2.452,2.009,.592,.356,1.552,.958,2.4,.999Z" style="fill:#E8FF4D;"></path><path d="M386.25,193.297c.732-.26,.928-1.229,.393-1.792-.686-.722-1.911-1.544-2.62-1.999-1.018-.653-2.215-1.083-3.423-1.01-.48,.029-.965,.141-1.368,.402-.403,.261-.717,.686-.767,1.164-.059,.562,.248,1.112,.673,1.484,.425,.372,.957,.596,1.481,.806,.983,.395,1.984,.769,3.031,.93,.683,.105,1.799,.298,2.599,.015Z" style="fill:#E8FF4D;"></path><path d="M384.872,201.644c.479-.511,.234-1.369-.428-1.598-.849-.294-2.171-.444-2.926-.514-1.086-.101-2.222,.051-3.159,.61-.372,.222-.714,.513-.929,.889-.215,.376-.289,.847-.132,1.25,.185,.474,.66,.788,1.154,.909,.494,.121,1.013,.08,1.52,.032,.951-.091,1.907-.207,2.812-.512,.591-.199,1.564-.507,2.087-1.066Z" style="fill:#E8FF4D;"></path><path d="M396.55,208.028c-.763-.148-1.423,.587-1.248,1.345,.225,.97,.863,2.301,1.243,3.052,.546,1.079,1.359,2.057,2.436,2.608,.428,.219,.903,.368,1.383,.348,.48-.02,.966-.228,1.252-.614,.336-.454,.351-1.085,.173-1.621-.178-.536-.522-.999-.867-1.446-.646-.839-1.319-1.669-2.14-2.34-.535-.438-1.399-1.17-2.232-1.332Z" style="fill:#E8FF4D;"></path><path d="M401.926,202.543c-.762,.152-1.095,1.083-.646,1.717,.576,.813,1.671,1.802,2.307,2.353,.914,.792,2.037,1.389,3.243,1.49,.479,.04,.975-.001,1.411-.202s.808-.577,.926-1.043c.139-.547-.087-1.137-.454-1.565-.368-.429-.861-.726-1.35-1.01-.916-.532-1.854-1.045-2.867-1.354-.661-.202-1.738-.552-2.57-.387Z" style="fill:#E8FF4D;"></path><path d="M404.484,194.479c-.547,.438-.427,1.321,.195,1.642,.798,.412,2.085,.751,2.822,.928,1.06,.255,2.207,.267,3.213-.151,.4-.166,.78-.405,1.046-.747,.266-.342,.408-.796,.309-1.218-.115-.496-.54-.874-1.012-1.065-.472-.191-.991-.224-1.499-.249-.954-.046-1.917-.068-2.856,.104-.613,.112-1.62,.278-2.218,.756Z" style="fill:#E8FF4D;"></path><g style="opacity:.3;"><path d="M395.398,173.367c-.009,1.318,2.157,1.5,3.476,1.504,3.293,.01,5.283,1.244,8.112,2.849,2.58,1.464,4.808,4.086,6.342,6.809,.077,.137,.502,.946,.778,1.479l1.517,2.818c1.314,2.393,1.897,.637,1.897,.637-.807-4.239-3.269-8.035-6.126-10.812-2.857-2.777-5.605-5.099-9.96-6.516-1.176-.383-2.512-.589-3.746-.511-1.234,.078-2.282,.507-2.291,1.743Z" style="fill:#fff;"></path></g><path d="M391.76,171.531c.47-.52,1.272-.56,1.792-.09,.52,.47,.56,1.273,.09,1.792s-1.272,.56-1.792,.09c-.52-.47-.56-1.272-.09-1.792Z" style="fill:#fff; opacity:.3;"></path></g></g></svg>
