<svg width="64" height="77" viewBox="0 0 64 77" fill="none" xmlns="http://www.w3.org/2000/svg">
<path d="M19.7692 14.9638H43.7972C48.5954 9.70183 48.7814 5.75928 48.8557 5.52367C49.3579 2.11518 45.6756 -0.570782 41.7143 0.104634C38.6829 0.717221 35.3725 1.01566 31.839 1.01566C28.3055 1.01566 24.9765 0.717221 21.9637 0.167463C18.0025 -0.570782 14.2458 2.17801 14.7479 5.52367C14.8037 5.82211 15.5662 10.9427 19.7692 14.9638Z" fill="#683309"/>
<path d="M44.8758 18.2778H18.7649C7.71797 25.4718 0 40.6451 0 53.3681C0 70.7404 14.2829 76.9448 31.8947 76.9448C49.5066 76.9448 63.7895 70.6619 63.7895 53.3681C63.7151 40.6451 55.9971 25.4718 44.8758 18.2778ZM34.7216 61.5516V63.2009C34.7216 64.5203 33.4569 65.5884 31.8947 65.5884C30.3325 65.5884 29.0679 64.5203 29.0679 63.2009V61.5516C27.4127 61.1275 25.9063 60.3578 24.6975 59.274C23.6374 58.3159 23.6746 56.808 24.8277 55.897C25.9621 55.0016 27.7475 55.033 28.8261 56.0069C29.6258 56.7294 30.7231 57.1378 31.9133 57.1378C34.238 57.1378 36.135 55.5357 36.135 53.5723C36.135 51.6088 34.238 50.0067 31.9133 50.0067C26.4643 50.0067 22.0381 46.2683 22.0381 41.6661C22.0381 37.8963 25.0137 34.7077 29.0865 33.671V32.0218C29.0865 30.7024 30.3511 29.6343 31.9133 29.6343C33.4755 29.6343 34.7402 30.7024 34.7402 32.0218V33.671C36.3953 34.0951 37.9017 34.8648 39.1106 35.9486C40.1706 36.9068 40.1334 38.4147 38.999 39.3257C37.8645 40.221 36.0792 40.1896 35.0005 39.2314C34.2008 38.5089 33.1036 38.1005 31.9133 38.1005C29.5886 38.1005 27.6917 39.7027 27.6917 41.6661C27.6917 43.6295 29.5886 45.2317 31.9133 45.2317C37.3624 45.2317 41.7886 48.97 41.7886 53.5723C41.77 57.342 38.7944 60.5306 34.7216 61.5516Z" fill="#683309"/>
</svg>
