<svg width="170" height="170" viewBox="0 0 170 170" fill="none" xmlns="http://www.w3.org/2000/svg">
<path d="M136.418 73.8791C135.372 71.3526 133.13 70.7469 131.613 70.602V55.2051C131.613 49.4946 126.969 44.8507 121.259 44.8507H90.196V37.6544C91.775 36.2359 92.7845 34.1961 92.7845 31.9078C92.7845 29.8482 91.9664 27.8729 90.51 26.4166C89.0536 24.9602 87.0784 24.142 85.0188 24.142C82.9592 24.142 80.9839 24.9602 79.5276 26.4166C78.0712 27.8729 77.253 29.8482 77.253 31.9078C77.253 34.1961 78.2626 36.2359 79.8416 37.6544V44.8507H48.7786C43.0682 44.8507 38.4243 49.4946 38.4243 55.2051V70.721L37.9997 70.7521C36.6949 70.8463 35.4742 71.4309 34.5829 72.3885C33.6916 73.3461 33.1958 74.6056 33.1953 75.9137V86.2681C33.1953 87.6411 33.7408 88.958 34.7117 89.9289C35.6826 90.8998 36.9994 91.4453 38.3725 91.4453H38.4243V117.331C38.4243 123.042 43.0682 127.685 48.7786 127.685H121.259C126.969 127.685 131.613 123.042 131.613 117.331V91.4453C132.986 91.4453 134.303 90.8998 135.274 89.9289C136.245 88.958 136.79 87.6411 136.79 86.2681V76.2347C136.85 75.4313 136.723 74.6249 136.418 73.8791ZM48.7786 117.331V55.2051H121.259L121.264 75.893L121.259 75.9137V86.2681L121.264 86.294L121.269 117.331H48.7786Z" fill="white"/>
<path d="M66.8986 86.2681C71.1875 86.2681 74.6643 81.6323 74.6643 75.9137C74.6643 70.1952 71.1875 65.5594 66.8986 65.5594C62.6097 65.5594 59.1328 70.1952 59.1328 75.9137C59.1328 81.6323 62.6097 86.2681 66.8986 86.2681Z" fill="white"/>
<path d="M103.139 86.2681C107.428 86.2681 110.905 81.6323 110.905 75.9137C110.905 70.1952 107.428 65.5594 103.139 65.5594C98.8499 65.5594 95.373 70.1952 95.373 75.9137C95.373 81.6323 98.8499 86.2681 103.139 86.2681Z" fill="white"/>
<path d="M64.3105 96.6224H105.728V106.977H64.3105V96.6224Z" fill="white"/>
<circle cx="85" cy="85" r="77.5" stroke="#FF5454" stroke-width="15"/>
<rect x="143.809" y="35.1416" width="153.974" height="13.0876" transform="rotate(135 143.809 35.1416)" fill="#FF5454"/>
</svg>
