<svg width="416" height="418" viewBox="0 0 416 418" fill="none" xmlns="http://www.w3.org/2000/svg">
<path d="M12.4672 133.812L71.1877 41.2905L111.897 36.3561L108.443 131.838L132.129 130.852L129.661 155.771L109.923 155.277L111.404 195H76.8624L79.3296 154.784L10.4934 155.031L12.4672 133.812ZM78.5895 68.1835L39.3602 131.592L79.8231 131.345L78.5895 68.1835Z" fill="white"/>
<path d="M285.467 133.812L344.188 41.2905L384.897 36.3561L381.443 131.838L405.129 130.852L402.661 155.771L382.923 155.277L384.404 195H349.862L352.33 154.784L283.493 155.031L285.467 133.812ZM351.589 68.1835L312.36 131.592L352.823 131.345L351.589 68.1835Z" fill="white"/>
<path d="M49.6408 271.14L34.8008 271.42L27.2908 271.54C24.7808 271.54 22.2908 271.54 19.7408 271.54H19.3008V271.09V258.46V258H19.8008L34.7508 258.07C39.7508 258.07 44.7508 258.18 49.7508 258.23H50.0208V258.5C50.0208 260.64 49.9308 262.77 49.8908 264.88L49.6408 271.14ZM49.6408 271.14L49.4908 264.77C49.4908 262.67 49.3808 260.58 49.3608 258.51L49.6408 258.78C44.6408 258.84 39.6408 258.94 34.6408 258.95L19.7408 259L20.2408 258.5L20.1908 271.13L19.7408 270.69C22.2108 270.69 24.6708 270.69 27.1408 270.74L34.5708 270.86L49.6408 271.14Z" fill="#EBEBEB"/>
<path d="M32.9996 287.071L18.1696 287.351L10.6496 287.471C8.13961 287.471 5.64961 287.471 3.09961 287.471H2.65961V287.021L2.59961 274.391V273.891H3.09961L17.9996 274.001C22.9996 274.001 27.9996 274.121 32.9496 274.171H33.2196V274.441C33.2196 276.581 33.1396 278.711 33.0896 280.821L32.9996 287.071ZM32.9996 287.071L32.8596 280.701C32.8596 278.601 32.7496 276.511 32.7296 274.441L32.9996 274.711C27.9996 274.771 22.9996 274.871 18.0496 274.881L3.09961 274.941L3.59961 274.441L3.54961 287.071L3.09961 286.631C5.56961 286.631 8.02961 286.631 10.4996 286.681L17.9396 286.801L32.9996 287.071Z" fill="#EBEBEB"/>
<path d="M33.0005 13.7098L18.1305 13.9998L10.6105 14.1098C8.10055 14.1098 5.61055 14.1098 3.06055 14.1698H2.62054V13.7198L2.56055 1.08984V0.589844H3.06055L18.0005 0.639843C23.0005 0.639843 28.0005 0.759845 32.9505 0.809845H33.2205V1.07985C33.2205 3.21985 33.1405 5.34984 33.0905 7.45984L33.0005 13.7098ZM33.0005 13.7098L32.8605 7.33984C32.8605 5.23984 32.7505 3.14985 32.7305 1.07985L33.0005 1.34984C28.0005 1.34984 23.0005 1.50984 18.0505 1.51984L3.10054 1.57985L3.60054 1.07985L3.55054 13.7098L3.10054 13.2698C5.57054 13.2698 8.03055 13.2698 10.5005 13.2698L17.9405 13.3898L33.0005 13.7098Z" fill="#EBEBEB"/>
<path d="M410.94 13.7098L396.1 13.9998L388.59 14.1098C386.08 14.1098 383.59 14.1098 381.04 14.1698H380.6V13.7198V1.08984V0.589844H381.1L396.05 0.649845C401.05 0.649845 406.05 0.769843 411 0.819843H411.27V1.08984C411.27 3.22984 411.18 5.35984 411.14 7.46984L410.94 13.7098ZM410.94 13.7098L410.79 7.33984C410.79 5.23984 410.68 3.14985 410.66 1.07985L410.94 1.34984C405.94 1.34984 400.94 1.50984 395.99 1.51984L381 1.57985L381.5 1.07985L381.45 13.7098L381 13.2698C383.47 13.2698 385.93 13.2698 388.4 13.2698L395.83 13.3898L410.94 13.7098Z" fill="#EBEBEB"/>
<path d="M394.261 29.64L379.431 29.92L371.911 30.03C369.401 30.03 366.911 30.03 364.361 30.09H363.921V29.64L363.861 17V16.5H364.361L379.311 16.56C384.311 16.56 389.311 16.68 394.261 16.73H394.541V17C394.541 19.14 394.461 21.27 394.411 23.38L394.261 29.64ZM394.261 29.64L394.121 23.27C394.071 21.16 394.011 19.08 393.991 17.01L394.261 17.28C389.261 17.28 384.261 17.44 379.311 17.45L364.361 17.51L364.861 17.01L364.811 29.64L364.361 29.2C366.831 29.2 369.291 29.2 371.761 29.2L379.201 29.32L394.261 29.64Z" fill="#EBEBEB"/>
<path d="M317.691 177.44L302.861 177.72L295.341 177.83C292.831 177.83 290.341 177.83 287.801 177.83H287.351V177.38L287.301 164.74V164.24H287.811L302.751 164.31C307.751 164.31 312.751 164.42 317.701 164.47H318.001V164.74C318.001 166.88 317.921 169.01 317.871 171.12L317.691 177.44ZM317.691 177.44L317.551 171.06C317.501 168.96 317.441 166.88 317.421 164.8L317.691 165.08C312.691 165.08 307.691 165.24 302.741 165.24L287.801 165.3L288.291 164.8L288.241 177.44L287.801 176.99C290.261 176.99 292.721 176.99 295.191 177.05L302.631 177.16L317.691 177.44Z" fill="#EBEBEB"/>
<path d="M301.001 193.371L286.171 193.651L278.661 193.761C276.151 193.811 273.661 193.761 271.111 193.811H270.661V193.361L270.611 180.721V180.221H271.111L286.061 180.291C291.061 180.291 296.061 180.401 301.001 180.451H301.281V180.721C301.281 182.861 301.191 184.991 301.151 187.101L301.001 193.371ZM301.001 193.371L300.861 186.991C300.861 184.891 300.751 182.811 300.731 180.731L301.001 181.011C296.001 181.061 291.001 181.171 286.061 181.171L271.111 181.231L271.611 180.731L271.551 193.371L271.111 192.921C273.571 192.921 276.041 192.921 278.511 192.981L285.941 193.091L301.001 193.371Z" fill="#EBEBEB"/>
<path d="M284.4 177.441L269.57 177.721L262.06 177.831C259.54 177.831 257.06 177.831 254.51 177.831H254.06V177.381L254 164.801V164.301H254.51L269.45 164.371C274.45 164.371 279.45 164.481 284.4 164.531H284.68V164.801C284.68 166.941 284.59 169.071 284.54 171.181L284.4 177.441ZM284.4 177.441L284.26 171.061C284.26 168.961 284.15 166.881 284.13 164.801L284.4 165.081C279.4 165.081 274.4 165.241 269.45 165.241L254.51 165.301L255.01 164.801L255 177.441L254.56 176.991C257.02 176.991 259.48 176.991 261.96 177.051L269.39 177.161L284.4 177.441Z" fill="#EBEBEB"/>
<path d="M410.94 287.071L396.1 287.351L388.59 287.471C386.08 287.471 383.59 287.471 381.04 287.471H380.6V287.021V274.391V273.891H381.1L396 274.001C401 274.001 406 274.121 410.95 274.171H411.22V274.441C411.22 276.581 411.13 278.711 411.09 280.821L410.94 287.071ZM410.94 287.071L410.79 280.701C410.79 278.601 410.68 276.511 410.66 274.441L410.94 274.711C405.94 274.771 400.94 274.871 395.99 274.881L381.04 274.941L381.54 274.441L381.49 287.071L381.04 286.631C383.51 286.631 385.97 286.631 388.44 286.681L395.87 286.801L410.94 287.071Z" fill="#EBEBEB"/>
<path d="M156.931 51.2804L142.091 51.5604L134.581 51.6704C132.071 51.6704 129.581 51.6704 127.031 51.7304H126.591V51.2804L126.541 38.6504V38.1504H127.041L141.991 38.2104C146.991 38.2104 151.991 38.3204 156.991 38.3804H157.261V38.6504C157.261 40.7904 157.171 42.9204 157.131 45.0204L156.931 51.2804ZM156.931 51.2804L156.781 44.9104C156.781 42.8004 156.671 40.7204 156.651 38.6504L156.931 38.9204C151.931 38.9204 146.931 39.0804 141.931 39.0804L127.001 39.1504L127.501 38.6504L127.451 51.2804L127.001 50.8404C129.471 50.8404 131.931 50.8404 134.401 50.8404L141.831 50.9504L156.931 51.2804Z" fill="#EBEBEB"/>
<path d="M0.369141 356.33L52.0291 356.08L103.689 356L206.999 355.83L310.309 355.99L361.969 356.08L413.629 356.33L361.969 356.57L310.309 356.66L206.999 356.82L103.689 356.66L52.0291 356.57L0.369141 356.33Z" fill="white"/>
<path d="M135.92 417.42C199.488 417.42 251.02 409.271 251.02 399.22C251.02 389.168 199.488 381.02 135.92 381.02C72.3523 381.02 20.8203 389.168 20.8203 399.22C20.8203 409.271 72.3523 417.42 135.92 417.42Z" fill="#EBEBEB"/>
<path d="M380.541 356.33H228.461C228.461 335.75 220.701 231.24 304.461 231.24C388.221 231.24 380.541 335.75 380.541 356.33Z" fill="#C7C7C7"/>
<path d="M333.231 236.321C330.731 236.101 328.121 235.981 325.421 235.981C244.811 235.981 252.271 336.531 252.271 356.331H228.451C228.451 335.751 220.701 231.241 304.451 231.241C314.281 231.08 324.05 232.804 333.231 236.321Z" fill="#A6A6A6"/>
<path d="M170.351 44.3702C179.681 39.2702 188.011 41.0502 193.671 40.9702C199.331 40.8902 210.821 33.0602 217.421 34.2402C224.021 35.4202 256.381 51.0002 261.501 58.0002C266.621 65.0002 275.141 82.7302 275.941 86.3102C276.741 89.8902 274.641 110.11 275.621 114.74C276.601 119.37 273.421 126.91 271.441 130.15C269.461 133.39 264.691 145.52 263.511 147.73C262.331 149.94 232.001 173.91 221.381 175.42C210.761 176.93 206.631 173.92 205.471 173.26C204.311 172.6 207.811 165.05 202.301 163.26C196.791 161.47 194.731 160.57 194.731 160.57C194.731 160.57 193.171 155.94 190.271 154.85C187.371 153.76 183.271 156.85 183.271 156.85C183.271 156.85 182.031 157.54 179.621 156.43C177.211 155.32 173.831 156.81 173.831 156.81C173.011 155.313 171.664 154.172 170.051 153.61C167.241 152.61 163.951 158.55 163.951 158.55C163.951 158.55 145.581 143.19 144.571 139.42C143.561 135.65 143.571 130.64 142.161 125.97C140.751 121.3 137.881 119.11 137.831 111.27C137.781 103.43 139.451 86.8702 141.511 82.9402C143.571 79.0102 145.371 73.4902 146.661 71.7602C147.951 70.0302 160.701 49.6402 170.351 44.3702Z" fill="#FFC727"/>
<g opacity="0.3">
<path d="M170.351 44.3702C179.681 39.2702 188.011 41.0502 193.671 40.9702C199.331 40.8902 210.821 33.0602 217.421 34.2402C224.021 35.4202 256.381 51.0002 261.501 58.0002C266.621 65.0002 275.141 82.7302 275.941 86.3102C276.741 89.8902 274.641 110.11 275.621 114.74C276.601 119.37 273.421 126.91 271.441 130.15C269.461 133.39 264.691 145.52 263.511 147.73C262.331 149.94 232.001 173.91 221.381 175.42C210.761 176.93 206.631 173.92 205.471 173.26C204.311 172.6 207.811 165.05 202.301 163.26C196.791 161.47 194.731 160.57 194.731 160.57C194.731 160.57 193.171 155.94 190.271 154.85C187.371 153.76 183.271 156.85 183.271 156.85C183.271 156.85 182.031 157.54 179.621 156.43C177.211 155.32 173.831 156.81 173.831 156.81C173.011 155.313 171.664 154.172 170.051 153.61C167.241 152.61 163.951 158.55 163.951 158.55C163.951 158.55 145.581 143.19 144.571 139.42C143.561 135.65 143.571 130.64 142.161 125.97C140.751 121.3 137.881 119.11 137.831 111.27C137.781 103.43 139.451 86.8702 141.511 82.9402C143.571 79.0102 145.371 73.4902 146.661 71.7602C147.951 70.0302 160.701 49.6402 170.351 44.3702Z" fill="white"/>
</g>
<path d="M233 145.629C234.54 143.749 238.47 143.439 238.93 145.459C239.39 147.479 238.34 149.809 235.67 149.749C233 149.689 232.4 146.389 233 145.629Z" fill="#FFC727"/>
<path opacity="0.1" d="M235.37 149.72C232.98 149.42 232.43 146.36 233.03 145.63C233.499 145.125 234.069 144.726 234.704 144.458C235.338 144.191 236.022 144.062 236.71 144.08C236.02 144.33 234.36 145.18 234.11 146.21C233.86 147.24 233.78 149 235.37 149.72Z" fill="white"/>
<path d="M149 105.12C151.64 99.9495 160.31 102.68 161.08 107.34C161.85 112 157.21 115.34 153.88 115.1C150.55 114.86 146.13 110.78 149 105.12Z" fill="#FFC727"/>
<path d="M245.111 111.659C240.961 110.359 230.531 113.029 228.411 121.999C227.201 127.119 233.771 137.799 240.501 138.379C247.231 138.959 252.211 131.969 253.711 126.239C255.211 120.509 251.471 113.649 245.111 111.659Z" fill="#FFC727"/>
<path opacity="0.1" d="M242.111 138.369C241.575 138.424 241.036 138.424 240.501 138.369C233.771 137.789 227.201 127.109 228.411 121.989C230.521 112.989 240.961 110.339 245.111 111.649C245.883 111.905 246.627 112.24 247.331 112.649C241.951 113.649 234.561 119.039 233.951 122.879C233.301 126.999 236.161 137.429 242.111 138.369Z" fill="white"/>
<path d="M213.001 44.12C212.661 47.55 209.001 49.88 206.001 52.21C203.001 54.54 197.001 53.54 192.811 51.55C188.621 49.56 186.161 41.35 186.271 40.74C189.031 40.74 191.511 41 193.621 40.97C197.511 40.97 204.181 37.18 210.111 35.25C211.341 37.56 213.261 41.72 213.001 44.12Z" fill="#FFC727"/>
<path opacity="0.1" d="M203.7 53.2802C200.52 54.0602 196.14 53.1002 192.85 51.5502C188.64 49.5502 186.2 41.3502 186.31 40.7402C188.51 40.7402 190.53 40.9102 192.31 40.9602C192.83 43.1002 194.24 48.3402 195.81 49.7402C197.84 51.5202 201.59 53.2002 203.7 53.2802Z" fill="white"/>
<path d="M246.831 73.2705C249.621 71.2705 254.701 73.2705 255.041 77.1905C255.381 81.1105 250.271 83.3605 246.831 80.7005C246.242 80.2762 245.763 79.7181 245.433 79.0722C245.102 78.4263 244.93 77.7111 244.93 76.9855C244.93 76.26 245.102 75.5448 245.433 74.8989C245.763 74.253 246.242 73.6949 246.831 73.2705Z" fill="#FFC727"/>
<path opacity="0.1" d="M247.721 75.9304C247.141 78.0904 247.401 79.6104 249.431 81.8004C248.483 81.6684 247.586 81.289 246.831 80.7004C246.242 80.276 245.763 79.7179 245.433 79.072C245.102 78.4261 244.93 77.7109 244.93 76.9854C244.93 76.2598 245.102 75.5446 245.433 74.8987C245.763 74.2528 246.242 73.6947 246.831 73.2704C247.574 72.8062 248.423 72.5388 249.297 72.4933C250.172 72.4478 251.044 72.6257 251.831 73.0104C251.631 72.9204 248.301 73.7704 247.721 75.9304Z" fill="white"/>
<path d="M204.571 164.7C203.951 164.029 203.17 163.526 202.301 163.24C196.781 161.43 194.731 160.55 194.731 160.55C194.731 160.55 193.171 155.92 190.271 154.83C187.371 153.74 183.271 156.83 183.271 156.83C183.941 151.14 186.371 148.83 190.471 146.67C194.571 144.51 201.781 145.49 204.001 151.04C205.581 154.92 205.001 161.2 204.571 164.7Z" fill="#FFC727"/>
<path opacity="0.1" d="M198.41 146.13C196.735 146.212 195.097 146.65 193.604 147.414C192.111 148.177 190.797 149.25 189.75 150.56C189.04 151.813 188.595 153.198 188.44 154.63C186.58 154.966 184.826 155.737 183.32 156.88C183.99 151.19 186.42 148.88 190.52 146.72C192.982 145.535 195.8 145.324 198.41 146.13Z" fill="white"/>
<path d="M175.26 69.1802C168.01 73.1802 163.1 84.3102 163.37 88.0202C163.64 91.7302 166.11 97.6702 169.31 100.5C176.51 106.87 190.71 103.95 194.16 100.5C197.61 97.0502 201.49 86.4502 200.26 81.2502C198.21 72.5602 182.67 65.1102 175.26 69.1802Z" fill="#FFC727"/>
<path opacity="0.1" d="M185.27 103.941C179.88 104.751 173.44 104.161 169.27 100.501C166.07 97.6707 163.59 91.7407 163.33 88.0307C163.07 84.3207 167.97 73.1607 175.22 69.1807C177.5 67.9307 180.54 67.7707 183.72 68.4007C179.98 71.1507 173.81 76.2307 172.46 80.6807C170.46 87.1707 171.65 93.9407 174.46 97.8707C176.32 100.381 181.66 102.641 185.27 103.941Z" fill="white"/>
<path d="M159.5 115.869C158.133 116.795 156.511 117.27 154.86 117.229C150.97 116.969 145.81 112.229 149.16 105.589C149.773 104.441 150.728 103.513 151.893 102.934C153.059 102.355 154.375 102.154 155.66 102.359C159.17 102.669 162.73 105.049 163.26 108.179C163.473 109.69 163.229 111.23 162.558 112.6C161.888 113.971 160.823 115.11 159.5 115.869Z" fill="#FFC727"/>
<path opacity="0.1" d="M159.5 115.869C158.133 116.795 156.511 117.27 154.86 117.229C150.97 116.969 145.81 112.229 149.16 105.589C149.773 104.441 150.728 103.513 151.893 102.934C153.059 102.355 154.375 102.154 155.66 102.359C154.15 103.509 151.77 105.849 151.77 109.129C151.77 113.939 154.77 115.129 156.62 115.779C157.56 116.037 158.547 116.068 159.5 115.869Z" fill="white"/>
<path d="M240.61 85.8106C240.26 86.057 239.834 86.1722 239.408 86.1358C238.981 86.0995 238.581 85.914 238.278 85.6119C237.975 85.3098 237.787 84.9105 237.749 84.4841C237.711 84.0578 237.825 83.6316 238.07 83.2806C238.221 82.9983 238.456 82.7698 238.743 82.6265C239.029 82.4833 239.353 82.4323 239.67 82.4806C240.092 82.4934 240.5 82.6396 240.834 82.8983C241.168 83.157 241.412 83.5149 241.53 83.9206C241.584 84.2916 241.525 84.6701 241.361 85.0071C241.196 85.3442 240.935 85.6241 240.61 85.8106Z" fill="#FFC727"/>
<path opacity="0.1" d="M240.61 85.8106C240.26 86.057 239.834 86.1722 239.408 86.1358C238.981 86.0995 238.581 85.914 238.278 85.6119C237.975 85.3098 237.787 84.9105 237.749 84.4841C237.711 84.0578 237.825 83.6316 238.07 83.2806C238.221 82.9983 238.456 82.7698 238.743 82.6265C239.029 82.4833 239.353 82.4323 239.67 82.4806C239.387 82.6642 239.149 82.9101 238.976 83.1996C238.803 83.4891 238.698 83.8144 238.67 84.1506C238.638 84.5213 238.741 84.8909 238.96 85.192C239.178 85.4931 239.498 85.7056 239.86 85.7906C240.104 85.8594 240.362 85.8663 240.61 85.8106Z" fill="white"/>
<path d="M159.841 125.24C162.321 124.08 166.481 125.66 165.961 127.94C165.441 130.22 163.261 132.09 160.561 130.74C157.861 129.39 158.831 125.72 159.841 125.24Z" fill="#FFC727"/>
<path opacity="0.1" d="M164.881 130C164.352 130.597 163.633 130.992 162.846 131.12C162.059 131.248 161.252 131.099 160.561 130.7C157.871 129.35 158.821 125.7 159.841 125.2C160.598 124.869 161.429 124.741 162.251 124.83C161.555 125.49 161.107 126.369 160.981 127.32C161.001 128.87 163.001 130.43 164.881 130Z" fill="white"/>
<path d="M173.471 198.719V202.999H158.471V181.699H173.181V186.019H163.391V190.159H171.801V194.159H163.391V198.689L173.471 198.719Z" fill="white"/>
<path d="M176.48 202.999V181.699H186.08C187.04 181.691 187.989 181.907 188.85 182.329C189.684 182.736 190.434 183.296 191.06 183.979C191.674 184.66 192.165 185.441 192.51 186.289C192.855 187.117 193.035 188.003 193.04 188.899C193.044 189.545 192.96 190.187 192.79 190.809C192.637 191.409 192.409 191.987 192.11 192.529C191.811 193.069 191.438 193.564 191 193.999C190.571 194.429 190.083 194.796 189.55 195.089L194.23 203.009H188.68L184.6 196.139H181.4V202.999H176.48ZM181.4 191.839H185.9C186.198 191.834 186.49 191.757 186.751 191.614C187.013 191.471 187.235 191.267 187.4 191.019C187.841 190.403 188.063 189.657 188.03 188.899C188.068 188.133 187.81 187.382 187.31 186.799C187.12 186.567 186.883 186.377 186.614 186.242C186.345 186.108 186.051 186.032 185.75 186.019H181.4V191.839Z" fill="white"/>
<path d="M196.58 202.999V181.699H206.17C207.133 181.691 208.085 181.906 208.95 182.329C209.784 182.736 210.533 183.296 211.16 183.979C211.774 184.66 212.264 185.441 212.61 186.289C212.952 187.117 213.129 188.004 213.13 188.899C213.131 189.543 213.053 190.184 212.9 190.809C212.735 191.407 212.503 191.983 212.21 192.529C211.913 193.065 211.543 193.556 211.11 193.989C210.68 194.419 210.192 194.786 209.66 195.079L214.33 202.999H208.79L204.71 196.129H201.5V202.999H196.58ZM201.5 191.839H206C206.298 191.834 206.59 191.757 206.851 191.614C207.112 191.471 207.335 191.267 207.5 191.019C207.933 190.4 208.151 189.655 208.12 188.899C208.16 188.134 207.906 187.383 207.41 186.799C207.219 186.566 206.98 186.375 206.709 186.24C206.438 186.106 206.142 186.031 205.84 186.019H201.5V191.839Z" fill="white"/>
<path d="M226.001 203.219C224.51 203.238 223.033 202.921 221.681 202.289C220.423 201.701 219.291 200.872 218.351 199.849C217.431 198.834 216.705 197.658 216.211 196.379C215.706 195.106 215.445 193.749 215.441 192.379C215.441 190.99 215.713 189.614 216.241 188.329C217.284 185.746 219.288 183.667 221.831 182.529C223.171 181.929 224.624 181.626 226.091 181.639C227.586 181.622 229.066 181.94 230.421 182.569C231.68 183.166 232.811 184.002 233.751 185.029C234.667 186.05 235.389 187.23 235.881 188.509C236.371 189.786 236.622 191.142 236.621 192.509C236.625 193.898 236.357 195.274 235.831 196.559C235.316 197.834 234.567 199.001 233.621 199.999C232.664 201 231.523 201.808 230.261 202.379C228.92 202.968 227.466 203.255 226.001 203.219ZM220.461 192.419C220.461 193.229 220.579 194.034 220.811 194.809C221.04 195.552 221.402 196.247 221.881 196.859C222.369 197.496 223 198.008 223.723 198.356C224.445 198.703 225.24 198.876 226.041 198.859C226.896 198.877 227.742 198.681 228.501 198.289C229.177 197.925 229.767 197.42 230.231 196.809C230.685 196.184 231.024 195.483 231.231 194.739C231.462 193.974 231.58 193.179 231.581 192.379C231.585 191.571 231.46 190.768 231.211 189.999C230.982 189.27 230.616 188.591 230.131 187.999C229.655 187.411 229.058 186.93 228.381 186.589C227.646 186.206 226.83 186.004 226.001 185.999C225.151 185.978 224.308 186.171 223.551 186.559C222.876 186.915 222.283 187.409 221.811 188.009C221.335 188.624 220.979 189.323 220.761 190.069C220.547 190.834 220.446 191.626 220.461 192.419Z" fill="white"/>
<path d="M239.471 202.999V181.699H249.071C250.034 181.691 250.986 181.906 251.851 182.329C252.681 182.736 253.428 183.296 254.051 183.979C254.671 184.657 255.165 185.439 255.511 186.289C255.853 187.117 256.029 188.004 256.031 188.899C256.033 189.544 255.952 190.186 255.791 190.809C255.634 191.41 255.402 191.987 255.101 192.529C254.515 193.608 253.63 194.494 252.551 195.079L257.231 202.999H251.681L247.601 196.129H244.391V202.999H239.471ZM244.391 191.839H248.891C249.188 191.834 249.48 191.757 249.742 191.614C250.003 191.471 250.226 191.267 250.391 191.019C250.831 190.403 251.053 189.657 251.021 188.899C251.058 188.133 250.8 187.382 250.301 186.799C250.111 186.566 249.874 186.375 249.605 186.241C249.336 186.106 249.041 186.031 248.741 186.019H244.391V191.839Z" fill="white"/>
<path d="M26.3705 29.2398C24.8789 29.2589 23.4022 28.941 22.0505 28.3098C20.7913 27.7183 19.66 26.8859 18.7205 25.8598C17.8001 24.8482 17.0746 23.6751 16.5805 22.3998C16.0753 21.1266 15.8141 19.7696 15.8105 18.3998C15.8165 17.0273 16.0882 15.669 16.6105 14.3998C17.6487 11.8107 19.6534 9.72703 22.2005 8.5898C23.5406 7.99296 24.9937 7.69278 26.4605 7.7098C27.9522 7.6907 29.4289 8.0086 30.7805 8.6398C32.0337 9.20198 33.1649 10.0037 34.1105 10.9998C35.0295 12.0182 35.7517 13.1982 36.2405 14.4798C36.7372 15.7549 36.9915 17.1114 36.9905 18.4798C36.988 19.8516 36.7198 21.21 36.2005 22.4798C35.1587 25.0622 33.1647 27.1456 30.6305 28.2998C29.297 28.9228 27.8424 29.2438 26.3705 29.2398ZM20.8205 18.4398C20.8189 19.2468 20.9403 20.0494 21.1805 20.8198C21.4089 21.5659 21.7715 22.264 22.2505 22.8798C22.7216 23.4819 23.319 23.9735 24.0005 24.3198C24.7454 24.6903 25.5688 24.8755 26.4005 24.8598C27.2555 24.8799 28.1016 24.6838 28.8605 24.2898C29.5413 23.9246 30.1349 23.4163 30.6005 22.7998C31.0542 22.1747 31.3928 21.4737 31.6005 20.7298C31.8483 19.9703 31.9831 19.1785 32.0005 18.3798C31.9948 17.5718 31.8667 16.7694 31.6205 15.9998C31.3913 15.2704 31.0247 14.5916 30.5405 13.9998C30.0638 13.411 29.4673 12.9303 28.7905 12.5898C28.0523 12.2054 27.2329 12.0031 26.4005 11.9998C25.5541 11.9769 24.7153 12.166 23.9605 12.5498C23.2857 12.9064 22.693 13.4004 22.2205 13.9998C21.7674 14.5995 21.4284 15.2775 21.2205 15.9998C20.965 16.7883 20.8301 17.611 20.8205 18.4398Z" fill="white"/>
<path d="M47.0002 29.36C45.7748 29.3812 44.5575 29.1567 43.4202 28.7C42.4197 28.2929 41.5141 27.6835 40.7602 26.91C40.0428 26.1616 39.4878 25.273 39.1302 24.3C38.3837 22.2973 38.3837 20.0927 39.1302 18.09C39.4878 17.1169 40.0428 16.2283 40.7602 15.48C41.5161 14.7063 42.421 14.094 43.4202 13.68C45.7198 12.7864 48.2706 12.7864 50.5702 13.68C51.5623 14.0963 52.4602 14.7085 53.2102 15.48C53.9303 16.23 54.4916 17.1177 54.8602 18.09C55.2403 19.0826 55.4336 20.137 55.4302 21.2C55.4354 22.258 55.249 23.3083 54.8802 24.3C54.5188 25.2735 53.9605 26.162 53.2402 26.91C52.49 27.6833 51.5877 28.2927 50.5902 28.7C49.4494 29.1568 48.2289 29.3811 47.0002 29.36ZM43.4402 21.2C43.3844 22.2901 43.7414 23.3613 44.4402 24.2C44.7559 24.5657 45.15 24.8555 45.5933 25.0477C46.0365 25.2399 46.5175 25.3295 47.0002 25.31C47.4769 25.315 47.9486 25.2125 48.3802 25.01C48.8016 24.8101 49.1764 24.5239 49.4802 24.17C49.8039 23.7832 50.0516 23.3388 50.2102 22.86C50.3944 22.3261 50.4857 21.7647 50.4802 21.2C50.533 20.1102 50.1763 19.0401 49.4802 18.2C49.1749 17.8427 48.7941 17.5578 48.3651 17.3658C47.9362 17.1738 47.47 17.0796 47.0002 17.09C46.5256 17.0866 46.056 17.1868 45.6242 17.3837C45.1924 17.5806 44.8088 17.8694 44.5002 18.23C44.174 18.6129 43.9229 19.054 43.7602 19.53C43.559 20.0643 43.4507 20.6291 43.4402 21.2Z" fill="white"/>
<path d="M67.711 29.36C66.6233 29.3876 65.5473 29.129 64.591 28.61C63.7373 28.1156 63.0432 27.3868 62.591 26.51V35.45H57.791V13.31H61.961V15.86C62.5072 14.994 63.2552 14.2734 64.141 13.76C65.0897 13.2399 66.1595 12.9811 67.241 13.01C68.2524 12.9991 69.2535 13.2144 70.171 13.64C71.05 14.0502 71.836 14.6355 72.481 15.36C73.1436 16.118 73.6591 16.993 74.001 17.94C74.3751 18.9649 74.5614 20.0489 74.551 21.14C74.562 22.2506 74.3897 23.3554 74.041 24.41C73.7229 25.3539 73.2349 26.2317 72.601 27C72.0116 27.723 71.2753 28.3127 70.441 28.73C69.5935 29.1525 68.658 29.3684 67.711 29.36ZM66.091 25.36C66.5893 25.3639 67.0808 25.2436 67.521 25.01C67.9495 24.7816 68.3298 24.4726 68.641 24.1C68.9704 23.7043 69.2215 23.2495 69.381 22.76C69.5507 22.2438 69.6352 21.7034 69.631 21.16C69.6383 20.6106 69.5434 20.0647 69.351 19.55C69.1729 19.0815 68.9083 18.6507 68.571 18.28C68.2364 17.9166 67.827 17.63 67.371 17.44C66.8899 17.238 66.3728 17.136 65.851 17.14C65.1746 17.1434 64.514 17.3451 63.951 17.72C63.3452 18.1047 62.86 18.6523 62.551 19.3V22.54C62.8623 23.3185 63.3644 24.0063 64.011 24.54C64.5904 25.0364 65.3281 25.3095 66.091 25.31V25.36Z" fill="white"/>
<path d="M83.1613 29.3601C81.8016 29.3617 80.4506 29.1422 79.1613 28.7101C77.941 28.3283 76.816 27.6908 75.8613 26.8401L77.5713 23.9001C78.4476 24.5139 79.3902 25.0271 80.3813 25.4301C81.2105 25.7848 82.0997 25.9782 83.0013 26.0001C83.5029 26.0288 84.0023 25.9144 84.4413 25.6701C84.6106 25.567 84.7479 25.4189 84.838 25.2423C84.928 25.0658 84.9673 24.8677 84.9513 24.6701C84.9479 24.4604 84.8863 24.2559 84.7732 24.0793C84.6602 23.9027 84.5003 23.761 84.3113 23.6701C83.5892 23.3165 82.827 23.0512 82.0413 22.8801C80.9813 22.5801 80.0413 22.2901 79.3613 22.0101C78.7261 21.7808 78.1241 21.4681 77.5713 21.0801C77.1419 20.7837 76.7972 20.3804 76.5713 19.9101C76.3608 19.4176 76.2585 18.8856 76.2713 18.3501C76.26 17.611 76.4161 16.879 76.7278 16.2088C77.0395 15.5386 77.4988 14.9476 78.0713 14.4801C78.6669 14.0016 79.3446 13.6357 80.0713 13.4001C80.8777 13.134 81.7223 13.0023 82.5713 13.0101C83.6959 13.0018 84.8152 13.1636 85.8913 13.4901C87.0031 13.8515 88.0255 14.4446 88.8913 15.2301L87.0313 18.1101C86.2827 17.5742 85.478 17.1216 84.6313 16.7601C83.9969 16.4959 83.3184 16.3535 82.6313 16.3401C82.1716 16.3239 81.7158 16.4309 81.3113 16.6501C81.138 16.751 80.996 16.8977 80.9007 17.0741C80.8054 17.2506 80.7606 17.4499 80.7713 17.6501C80.763 17.8559 80.8142 18.0597 80.9189 18.2371C81.0235 18.4145 81.1772 18.5579 81.3613 18.6501C82.0536 18.9752 82.782 19.2169 83.5313 19.3701C84.4934 19.6191 85.4414 19.9195 86.3713 20.2701C87.0387 20.5137 87.6682 20.8503 88.2413 21.2701C88.6909 21.6043 89.0514 22.0439 89.2913 22.5501C89.5231 23.0897 89.6357 23.673 89.6213 24.2601C89.6493 24.9779 89.5051 25.692 89.2006 26.3427C88.8962 26.9933 88.4404 27.5616 87.8713 28.0001C86.5022 28.9769 84.8404 29.4567 83.1613 29.3601Z" fill="white"/>
<path d="M91.8906 29.0599V24.1699H95.8206V29.0599H91.8906Z" fill="white"/>
<path d="M99.0605 29.0599V24.1699H103.001V29.0599H99.0605Z" fill="white"/>
<path d="M106.23 29.0599V24.1699H110.16V29.0599H106.23Z" fill="white"/>
<path d="M207.74 266.28C205.27 266.14 193.31 264.88 191.22 262.96C185.52 257.72 182.22 254.32 181.73 251.09C181.27 248.22 183.53 242.79 183.58 239.84C183.63 236.89 188.64 238.5 190.36 238.32C193.92 237.96 194.71 240.02 196.58 240.69C197.88 241.16 202.31 238.78 205.44 241.02C208.57 243.26 207.94 247.07 207.94 247.07C207.94 247.07 215.23 250.41 215.36 254.39C215.5 258.89 210.52 266.44 207.74 266.28Z" fill="#FFC727"/>
<path opacity="0.3" d="M207.74 266.28C205.27 266.14 193.31 264.88 191.22 262.96C185.52 257.72 182.22 254.32 181.73 251.09C181.27 248.22 183.53 242.79 183.58 239.84C183.63 236.89 188.64 238.5 190.36 238.32C193.92 237.96 194.71 240.02 196.58 240.69C197.88 241.16 202.31 238.78 205.44 241.02C208.57 243.26 207.94 247.07 207.94 247.07C207.94 247.07 215.23 250.41 215.36 254.39C215.5 258.89 210.52 266.44 207.74 266.28Z" fill="white"/>
<path d="M67.3188 360.111C63.6888 364.351 48.8588 367.271 40.1488 360.441C31.4388 353.611 26.2688 330.911 26.4988 323.261C26.7288 315.611 49.0888 222.001 55.4488 199.701C61.8088 177.401 51.4488 166.311 44.1588 161.041C36.8688 155.771 21.4488 161.511 18.3288 164.841C15.2088 168.171 13.7988 177.001 13.7988 177.001C13.7988 177.001 16.3788 169.001 21.0888 166.351C25.7988 163.701 36.1488 161.821 41.5688 164.881C46.9888 167.941 54.9288 181.571 50.4788 193.481C46.0288 205.391 18.9988 313.431 18.3288 323.531C17.5588 335.661 24.3888 357.031 34.7388 366.261C45.0888 375.491 62.8588 374.621 64.7388 375.261C66.6188 375.901 66.8988 378.641 66.8988 378.641L67.3188 360.111Z" fill="#FFC727"/>
<path opacity="0.1" d="M67.3188 360.111C63.6888 364.351 48.8588 367.271 40.1488 360.441C31.4388 353.611 26.2688 330.911 26.4988 323.261C26.7288 315.611 49.0888 222.001 55.4488 199.701C61.8088 177.401 51.4488 166.311 44.1588 161.041C36.8688 155.771 21.4488 161.511 18.3288 164.841C15.2088 168.171 13.7988 177.001 13.7988 177.001C13.7988 177.001 16.3788 169.001 21.0888 166.351C25.7988 163.701 36.1488 161.821 41.5688 164.881C46.9888 167.941 54.9288 181.571 50.4788 193.481C46.0288 205.391 18.9988 313.431 18.3288 323.531C17.5588 335.661 24.3888 357.031 34.7388 366.261C45.0888 375.491 62.8588 374.621 64.7388 375.261C66.6188 375.901 66.8988 378.641 66.8988 378.641L67.3188 360.111Z" fill="white"/>
<g opacity="0.2">
<path d="M61.819 364.459C61.2435 367.916 61.1425 371.435 61.519 374.919H61.119C60.8744 373.228 60.7741 371.518 60.819 369.809C60.8651 367.998 61.0726 366.194 61.439 364.419C61.519 364.049 61.599 363.679 61.689 363.309L62.059 363.189C61.999 363.589 61.889 363.999 61.819 364.459Z" fill="white"/>
<path d="M48.8383 364.121L48.7183 364.811C48.4225 366.578 48.2322 368.361 48.1483 370.151C48.1483 369.251 48.0783 368.351 48.1483 367.451C48.2183 366.551 48.2483 365.651 48.3783 364.751L48.4683 364.051L48.8383 364.121Z" fill="white"/>
<path d="M50.8491 373.581C50.8491 373.771 50.8491 373.951 50.8491 374.141C50.8491 373.951 50.7891 373.761 50.7691 373.571C50.6591 372.871 50.5591 372.171 50.4991 371.461C50.4991 370.561 50.3791 369.661 50.4091 368.751C50.4147 367.29 50.5351 365.832 50.7691 364.391H51.2591C51.0071 365.825 50.8501 367.275 50.7891 368.731C50.7126 370.347 50.7326 371.967 50.8491 373.581Z" fill="white"/>
<path d="M54.7393 371.539C54.7393 372.446 54.7393 373.356 54.7393 374.269L54.2793 374.199C54.2793 373.299 54.2793 372.409 54.2793 371.519C54.3626 369.716 54.6648 367.93 55.1793 366.199C54.8836 367.964 54.7364 369.75 54.7393 371.539Z" fill="white"/>
<path d="M44.6996 363C44.5196 363.84 44.3596 364.69 44.2496 365.54C43.9831 367.308 43.8461 369.092 43.8396 370.88C43.8396 371.12 43.8396 371.35 43.8396 371.59L43.4896 371.46C43.4896 371.27 43.4896 371.07 43.4896 370.88C43.4293 369.071 43.5297 367.261 43.7896 365.47C43.9176 364.582 44.0912 363.701 44.3096 362.83L44.6996 363Z" fill="white"/>
<path d="M34.5688 353.29C34.4422 353.55 34.3222 353.81 34.2088 354.07C32.9439 356.854 32.014 359.777 31.4388 362.78L31.2988 362.61C31.2988 362.28 31.3788 361.95 31.4288 361.61C31.5888 360.73 31.7288 359.83 31.9688 358.96C32.4163 357.206 33.0118 355.493 33.7488 353.84C33.9188 353.47 34.0988 353.1 34.2788 352.74L34.5688 353.29Z" fill="white"/>
<path d="M35.9992 355.73C35.6892 356.5 35.4192 357.28 35.1792 358.07C34.6561 359.767 34.2616 361.502 33.9992 363.26C33.8792 363.92 33.7792 364.57 33.7092 365.26C33.6174 365.171 33.5306 365.078 33.4492 364.98C33.4757 364.394 33.5324 363.81 33.6192 363.23C33.8544 361.432 34.2459 359.659 34.7892 357.93C35.0792 357.03 35.3992 356.14 35.7892 355.27C35.8192 355.41 35.9192 355.57 35.9992 355.73Z" fill="white"/>
<path d="M38.6684 361.24C38.1374 362.955 37.7527 364.711 37.5184 366.49C37.4384 367.08 37.3684 367.67 37.3184 368.26L36.8984 368C36.9584 367.49 37.0384 367 37.1384 366.46C37.438 364.665 37.9517 362.913 38.6684 361.24Z" fill="white"/>
<path d="M32.7295 349.531C32.0812 350.408 31.4804 351.319 30.9295 352.261C30.0096 353.792 29.1783 355.375 28.4395 357.001C28.7395 356.161 29.0295 355.301 29.4395 354.471C29.8495 353.641 30.1895 352.831 30.6395 352.051C31.2063 351.006 31.848 350.003 32.5594 349.051C32.5794 349.201 32.6495 349.371 32.7295 349.531Z" fill="white"/>
<path d="M28.1086 335.271C27.7386 335.601 27.3686 335.931 27.0086 336.271C25.7071 337.501 24.472 338.799 23.3086 340.161C23.8386 339.441 24.3086 338.691 24.9286 338.001C25.5486 337.311 26.0986 336.621 26.7486 336.001C27.1486 335.581 27.5686 335.181 27.9986 334.811C27.9986 335.001 28.0786 335.111 28.1086 335.271Z" fill="white"/>
<path d="M28.7788 337.999C27.8885 338.848 27.0503 339.749 26.2688 340.699C25.1147 342.07 24.0397 343.506 23.0488 344.999C23.4888 344.209 23.9088 343.409 24.3988 342.659C24.8888 341.909 25.3988 341.149 25.9688 340.449C26.7826 339.384 27.6751 338.381 28.6388 337.449C28.6888 337.639 28.7288 337.819 28.7788 337.999Z" fill="white"/>
<path d="M30.1085 342.55C29.2585 343.407 28.4572 344.312 27.7085 345.26C26.5952 346.649 25.5921 348.124 24.7085 349.67C24.5385 349.95 24.3785 350.23 24.2185 350.51L23.9785 349.95C24.0685 349.77 24.1785 349.59 24.2785 349.41C25.1922 347.852 26.2395 346.376 27.4085 345C28.2222 344.053 29.1046 343.167 30.0485 342.35L30.1085 342.55Z" fill="white"/>
<path d="M26.8383 328.32C25.1056 328.389 23.3806 328.589 21.6783 328.92C20.6083 329.11 19.5383 329.34 18.4883 329.63C18.4883 329.48 18.4883 329.33 18.4883 329.18C19.4883 328.88 20.5683 328.64 21.6283 328.43C23.3432 328.108 25.0835 327.941 26.8283 327.93C26.8083 328.06 26.8183 328.19 26.8383 328.32Z" fill="white"/>
<path d="M27.8585 315.12C27.8585 315.28 27.7885 315.44 27.7585 315.6C26.4895 315.53 25.2176 315.53 23.9485 315.6C22.5019 315.649 21.0594 315.783 19.6285 316C19.6238 315.964 19.6238 315.927 19.6285 315.89C20.1585 315.76 20.6785 315.64 21.2185 315.55C22.1085 315.42 23.0085 315.27 23.9085 315.21C25.2216 315.09 26.5414 315.06 27.8585 315.12Z" fill="white"/>
<path d="M27.3979 317.469L27.3079 317.939C26.8179 317.939 26.3079 317.939 25.8379 317.939C24.0516 317.964 22.2698 318.124 20.5079 318.419C20.0279 318.489 19.5579 318.569 19.0879 318.659C19.0879 318.549 19.0879 318.439 19.1579 318.329C19.5779 318.219 20.0079 318.119 20.4379 318.039C22.2139 317.685 24.0173 317.484 25.8279 317.439C26.3479 317.439 26.8779 317.449 27.3979 317.469Z" fill="white"/>
<path d="M23.9387 322.25C22.1488 322.3 20.3662 322.497 18.6087 322.84L18.3887 322.89C18.3887 322.77 18.3887 322.63 18.3887 322.49H18.4887C20.2891 322.191 22.119 322.111 23.9387 322.25Z" fill="white"/>
<path d="M28.6786 311.121C28.6786 311.241 28.6286 311.351 28.6086 311.461C28.2986 311.461 27.9786 311.391 27.6686 311.371C25.8876 311.241 24.0996 311.241 22.3186 311.371C21.7286 311.371 21.1486 311.451 20.5586 311.521C20.5586 311.351 20.6386 311.191 20.6686 311.031C21.2086 310.971 21.7486 310.921 22.2886 310.881C24.0959 310.767 25.9096 310.814 27.7086 311.021L28.6786 311.121Z" fill="white"/>
<path d="M31.3888 298.62C31.3888 298.78 31.3188 298.95 31.2788 299.11C29.5964 298.734 27.8884 298.483 26.1688 298.36C25.2988 298.28 24.4188 298.24 23.5488 298.24L23.6088 297.99C24.4688 297.99 25.3288 297.92 26.1988 297.99C27.9434 298.055 29.6795 298.265 31.3888 298.62Z" fill="white"/>
<path d="M30.8785 300.93C30.8785 301.08 30.8085 301.23 30.7785 301.37C29.7866 301.179 28.7852 301.043 27.7785 300.96C26.1849 300.785 24.5808 300.725 22.9785 300.78C22.9785 300.64 23.0485 300.5 23.0785 300.36C24.6622 300.278 26.2497 300.312 27.8285 300.46C28.8528 300.563 29.8708 300.72 30.8785 300.93Z" fill="white"/>
<path d="M25.3593 305C24.2526 304.895 23.1407 304.855 22.0293 304.88C22.0479 304.785 22.0713 304.692 22.0993 304.6C23.1952 304.642 24.2856 304.776 25.3593 305Z" fill="white"/>
<path d="M34.3789 285.42C34.3789 285.54 34.3789 285.65 34.2989 285.77C32.6789 285.44 31.0289 285.27 29.3789 285.09C30.2789 285.09 31.1789 285.09 32.0789 285.16C32.9789 285.23 33.6189 285.29 34.3789 285.42Z" fill="white"/>
<path d="M33.8493 287.729C33.8493 287.889 33.7793 288.039 33.7393 288.189C32.7393 288.009 31.7393 287.889 30.6693 287.809C29.1267 287.672 27.5774 287.626 26.0293 287.669C26.0338 287.643 26.0338 287.616 26.0293 287.589C26.6693 287.519 27.3193 287.449 27.9693 287.419C28.8693 287.419 29.7693 287.359 30.6793 287.419C31.7411 287.461 32.7995 287.565 33.8493 287.729Z" fill="white"/>
<path d="M33.0782 292.339L32.8082 292.279C31.1614 291.93 29.4895 291.713 27.8082 291.629C26.9282 291.629 26.0482 291.559 25.1582 291.569C25.1582 291.419 25.2282 291.269 25.2682 291.119C26.1282 291.119 26.9882 291.169 27.8382 291.249C29.5366 291.397 31.2135 291.732 32.8382 292.249L33.0782 292.339Z" fill="white"/>
<path d="M35.3792 281.11C35.3792 281.27 35.2992 281.43 35.2692 281.58C34.8892 281.49 34.5092 281.42 34.1292 281.36C32.3763 281.03 30.6015 280.83 28.8192 280.76C28.4492 280.76 28.0692 280.76 27.6992 280.76C27.6992 280.65 27.6992 280.53 27.7792 280.42H28.7792C30.5866 280.428 32.39 280.592 34.1692 280.91C34.6092 280.94 34.9992 281 35.3792 281.11Z" fill="white"/>
<path d="M39.2077 264.74C39.2077 264.84 39.2077 264.94 39.1377 265.04C37.9177 264.82 36.6677 264.67 35.4277 264.52C36.2977 264.52 37.1677 264.52 38.0477 264.61L39.2077 264.74Z" fill="white"/>
<path d="M37.7492 270.929C37.7492 271.069 37.6792 271.209 37.6492 271.339L36.7592 271.149C35.0056 270.788 33.2327 270.527 31.4492 270.369C32.3392 270.369 33.2492 270.369 34.1492 270.439C35.0492 270.509 35.9492 270.599 36.8292 270.769L37.7492 270.929Z" fill="white"/>
<path d="M41.9986 252.929C41.9986 253.089 41.9186 253.239 41.8886 253.389C40.5512 252.954 39.1887 252.6 37.8086 252.329C36.8086 252.109 35.8086 251.949 34.8086 251.829L34.8686 251.609H35.2186C36.1186 251.699 37.0186 251.769 37.9086 251.929C39.2953 252.159 40.6626 252.493 41.9986 252.929Z" fill="white"/>
<path d="M40.9389 257.44C40.9389 257.59 40.8689 257.74 40.8289 257.89C40.1289 257.68 39.4089 257.5 38.6889 257.35C37.0234 256.964 35.3324 256.696 33.6289 256.55L33.7189 256.16C35.4289 256.257 37.1279 256.494 38.7989 256.87C39.5189 257 40.2289 257.22 40.9389 257.44Z" fill="white"/>
<path d="M44.9984 235.189C43.3174 234.571 41.5882 234.092 39.8284 233.759L39.3984 233.679C39.3984 233.549 39.4684 233.419 39.4984 233.289L39.9084 233.379C41.6689 233.785 43.3768 234.392 44.9984 235.189Z" fill="white"/>
<path d="M42.9989 248.999L42.9089 249.349L42.4689 249.199C40.7745 248.63 39.0396 248.188 37.2789 247.879C36.8189 247.789 36.3489 247.709 35.8789 247.649L35.9989 247.189L37.3689 247.389C39.1519 247.716 40.9022 248.202 42.5989 248.839L42.9989 248.999Z" fill="white"/>
<path d="M56.4778 195.471C56.4819 195.514 56.4819 195.557 56.4778 195.601C55.2128 194.994 53.9101 194.47 52.5778 194.031C51.8978 193.801 51.1978 193.591 50.5078 193.401C50.5667 193.261 50.6168 193.117 50.6578 192.971C51.3478 193.181 52.0378 193.411 52.6578 193.671C53.9791 194.163 55.2569 194.765 56.4778 195.471Z" fill="white"/>
<path d="M54.1191 199.111C52.4947 198.49 50.8225 198.001 49.1191 197.651C49.1191 197.531 49.1991 197.421 49.2291 197.301C50.9225 197.717 52.563 198.324 54.1191 199.111Z" fill="white"/>
<path d="M54.668 173.431C53.318 173.621 51.968 173.901 50.668 174.181C51.528 173.921 52.388 173.631 53.268 173.421L54.578 173.131C54.578 173.231 54.628 173.331 54.668 173.431Z" fill="white"/>
<path d="M55.7081 176C55.1281 176 54.5481 176.09 53.9781 176.16C52.6682 176.294 51.3664 176.498 50.0781 176.77C50.0822 176.727 50.0822 176.683 50.0781 176.64C50.4881 176.51 50.9081 176.39 51.3181 176.29C52.1981 176.1 53.0781 175.89 53.9781 175.78C54.5181 175.69 55.0681 175.62 55.6081 175.58C55.65 175.718 55.6834 175.858 55.7081 176Z" fill="white"/>
<path d="M57.3784 188.43C57.3784 188.53 57.3784 188.63 57.3784 188.74C56.1484 188.45 54.8984 188.23 53.6484 188.01C54.5384 188.08 55.4484 188.13 56.3384 188.26L57.3784 188.43Z" fill="white"/>
<path d="M55.108 180.551C53.8128 180.565 52.52 180.666 51.238 180.851C51.238 180.741 51.238 180.651 51.168 180.551C52.4783 180.426 53.7976 180.426 55.108 180.551Z" fill="white"/>
<path d="M51.1987 167.73C50.1987 168.2 49.2587 168.73 48.3387 169.28C47.8087 169.58 47.3387 169.9 46.7987 170.28L46.6387 170.04C47.1287 169.67 47.6387 169.31 48.1387 168.99C49.023 168.401 49.945 167.87 50.8987 167.4L51.1987 167.73Z" fill="white"/>
<path d="M45.8387 163.82C44.9136 164.495 44.0288 165.223 43.1888 166L42.9688 165.81C43.8669 165.066 44.8271 164.401 45.8387 163.82Z" fill="white"/>
<path d="M34.5787 159C34.0087 160.07 33.5087 161.16 33.0487 162.27C32.8987 162.63 32.7587 162.99 32.6187 163.36H32.1387C32.3187 162.93 32.4987 162.51 32.6887 162.09C33.1784 161.025 33.7362 159.993 34.3587 159H34.5787Z" fill="white"/>
<path d="M30.7492 160.311C30.194 161.405 29.7097 162.534 29.2992 163.691L28.9492 163.751C29.4408 162.55 30.0434 161.399 30.7492 160.311Z" fill="white"/>
<path d="M27.1279 160.4C27.0279 161.4 26.9679 162.4 26.9079 163.47C26.9079 162.57 26.8179 161.67 26.8479 160.77C26.8479 160.67 26.8479 160.58 26.8479 160.48L27.1279 160.4Z" fill="white"/>
<path d="M24.3787 164.91L23.9987 165C23.8401 163.873 23.7466 162.738 23.7188 161.6L24.1987 161.4C24.1921 162.573 24.2522 163.745 24.3787 164.91Z" fill="white"/>
<path d="M21.9286 163.449C21.8486 164.279 21.8086 165.119 21.8086 165.949L21.5586 166.069C21.6216 165.188 21.7452 164.313 21.9286 163.449Z" fill="white"/>
<path d="M45.2095 161.831C44.1686 162.535 43.1671 163.296 42.2095 164.111L41.4295 164.791C41.2981 164.711 41.1611 164.641 41.0195 164.581C41.3295 164.321 41.6395 164.061 41.9595 163.811C42.9367 163.044 43.9658 162.345 45.0395 161.721L45.2095 161.831Z" fill="white"/>
<path d="M49.5377 165.779C48.5377 166.419 47.6277 167.119 46.6777 167.779C47.3477 167.189 48.0077 166.569 48.6777 166.009L49.2977 165.539L49.5377 165.779Z" fill="white"/>
<path d="M45.4785 238.701L45.3585 239.181L45.0585 239.071C43.3778 238.457 41.6528 237.973 39.8985 237.621C39.4285 237.511 38.9585 237.421 38.4785 237.341C38.4785 237.241 38.4785 237.151 38.5485 237.051C39.0285 237.101 39.5485 237.161 39.9785 237.251C41.7614 237.546 43.5149 237.998 45.2185 238.601L45.4785 238.701Z" fill="white"/>
<path d="M48.388 226.91C48.3834 226.98 48.3834 227.051 48.388 227.12L46.168 226.48C46.868 226.62 47.628 226.74 48.388 226.91Z" fill="white"/>
<path d="M47.2682 231.39L47.1782 231.8L46.1782 231.52C44.4409 231.091 42.6816 230.758 40.9082 230.52C41.7982 230.58 42.7082 230.62 43.5982 230.73C44.4882 230.84 45.3882 230.98 46.2682 231.2C46.5782 231.22 46.9282 231.3 47.2682 231.39Z" fill="white"/>
<path d="M53.048 208.581L52.928 209.031C52.368 208.871 51.808 208.731 51.248 208.611C49.6042 208.213 47.9329 207.939 46.248 207.791C46.248 207.651 46.318 207.521 46.358 207.391C48.0411 207.504 49.7128 207.748 51.358 208.121C51.928 208.261 52.488 208.411 53.048 208.581Z" fill="white"/>
<path d="M49.4981 222.46L49.3781 222.92C48.3665 222.598 47.3384 222.331 46.2981 222.12C45.0711 221.837 43.8291 221.624 42.5781 221.48C42.5827 221.43 42.5827 221.38 42.5781 221.33C42.9381 221.33 43.2881 221.33 43.6481 221.38C44.5381 221.48 45.4381 221.56 46.3281 221.74C47.3989 221.913 48.4576 222.154 49.4981 222.46Z" fill="white"/>
<path d="M51.9977 212.58C52.0008 212.624 52.0008 212.667 51.9977 212.71L50.6777 212.32L51.9977 212.58Z" fill="white"/>
<path d="M53.1381 202.551C51.4899 201.979 49.7975 201.545 48.0781 201.251C48.0781 201.131 48.1381 201.011 48.1781 200.891C49.8897 201.252 51.554 201.809 53.1381 202.551Z" fill="white"/>
<path d="M36.7586 275.139C36.7478 275.207 36.7311 275.274 36.7086 275.339C35.6263 275.032 34.528 274.785 33.4186 274.599C32.0591 274.351 30.6871 274.177 29.3086 274.079C29.3086 273.929 29.3786 273.769 29.4186 273.619C30.7876 273.724 32.1476 273.924 33.4886 274.219C34.5968 274.457 35.689 274.764 36.7586 275.139Z" fill="white"/>
</g>
<path d="M101.999 403.002C104.893 402.606 107.825 402.566 110.729 402.882C114 403.18 117.192 404.054 120.159 405.462C121.029 405.882 121.789 404.592 120.919 404.172C114.889 401.377 108.156 400.464 101.599 401.552C100.649 401.702 101.059 403.152 101.999 403.002Z" fill="black"/>
<path d="M99.1289 403.33C102.282 403.638 105.316 404.694 107.979 406.41C110.813 408.091 113.299 410.301 115.299 412.92C115.849 413.7 117.149 412.92 116.589 412.16C114.464 409.325 111.791 406.944 108.729 405.16C105.839 403.309 102.547 402.181 99.1289 401.87C98.1289 401.82 98.1289 403.32 99.1289 403.37V403.33Z" fill="black"/>
<path d="M165.398 387C168.289 386.604 171.218 386.564 174.118 386.88C177.391 387.185 180.585 388.058 183.558 389.46C184.418 389.88 185.178 388.59 184.308 388.17C178.277 385.39 171.549 384.488 164.998 385.58C164.048 385.74 164.448 387.18 165.398 387.03V387Z" fill="black"/>
<path d="M162.479 387.321C165.633 387.627 168.669 388.686 171.329 390.411C174.165 392.085 176.65 394.292 178.649 396.911C179.199 397.691 180.499 396.911 179.939 396.151C177.811 393.317 175.138 390.937 172.079 389.151C169.187 387.304 165.895 386.176 162.479 385.861C161.479 385.811 161.479 387.311 162.479 387.361V387.321Z" fill="black"/>
<path d="M124.749 201.91C124.749 201.91 101.389 201.47 84.5692 187.72C70.6592 176.33 65.5692 170.72 62.5092 173.52C59.4492 176.32 63.9392 222.22 100.509 232.52C112.959 236.01 124.749 213.52 124.749 213.52V201.91Z" fill="#FFC727"/>
<path opacity="0.1" d="M124.749 201.91C124.749 201.91 101.389 201.47 84.5692 187.72C70.6592 176.33 65.5692 170.72 62.5092 173.52C59.4492 176.32 63.9392 222.22 100.509 232.52C112.959 236.01 124.749 213.52 124.749 213.52V201.91Z" fill="white"/>
<path opacity="0.1" d="M124.749 201.911V213.491C124.749 213.491 112.999 236.001 100.509 232.491C91.4479 229.963 83.3373 224.81 77.1992 217.681C85.9392 211.971 99.1092 203.411 106.509 198.811C112.444 200.569 118.567 201.61 124.749 201.911Z" fill="white"/>
<path d="M98.3383 281.14C98.3383 281.14 84.0783 254.32 85.0583 241.22C86.0383 228.12 99.9983 206 111.598 200.44C123.198 194.88 177.268 202.82 195.128 221.24C198.998 225.24 195.318 232.29 193.328 235.9C190.748 240.57 181.728 251.09 173.908 254.14C173.908 254.14 175.308 269.55 158.908 277.91C158.908 277.91 164.478 304.11 169.558 318.36C174.638 332.61 186.918 356.36 179.378 373.56C171.838 390.76 152.868 389.45 140.378 391.25C127.888 393.05 106.998 405.17 88.4983 402.55C69.9983 399.93 62.6483 379.39 67.8583 357C73.5983 332.45 83.2683 302.6 98.3383 281.14Z" fill="#FFC727"/>
<path d="M102.109 224.191C102.109 224.191 95.1091 223.531 81.5791 218.071C68.0491 212.611 45.6791 198.231 23.9291 209.771C-1.19086 223.091 -9.58087 283.481 38.3391 302.151C79.6791 318.251 109.099 257.151 109.099 257.151L102.109 224.191Z" fill="#FFC727"/>
<path opacity="0.1" d="M109.089 257.171C109.089 257.171 79.6795 318.251 38.3395 302.171C27.5395 297.971 19.5995 291.641 14.0695 284.171C9.02091 275.569 5.97548 265.941 5.15946 256.001C4.32946 244.151 6.15946 227.001 21.5295 217.511C36.8995 208.021 56.5795 217.001 71.9995 225.331C87.4195 233.661 101.159 234.331 104.649 236.071C112.229 243.521 109.089 257.171 109.089 257.171Z" fill="white"/>
<path d="M72 213.781L79.44 216.701C81.93 217.651 84.44 218.631 86.9 219.541C89.36 220.451 91.9 221.351 94.42 222.161C95.68 222.591 96.95 222.941 98.24 223.291C98.88 223.451 99.52 223.631 100.17 223.781C100.82 223.931 101.47 224.041 102.17 224.191C99.4913 224.047 96.8359 223.615 94.25 222.901C91.6539 222.237 89.0966 221.429 86.59 220.481C84.08 219.541 81.59 218.481 79.18 217.401C76.77 216.321 74.29 215.111 72 213.781Z" fill="black"/>
<path d="M95 279.05L96.8 276.32L98.62 273.62L102.23 268.21C103.43 266.4 104.59 264.58 105.76 262.75C106.33 261.83 106.92 260.92 107.45 259.97C107.98 259.02 108.54 258.1 109.12 257.16C108.37 259.223 107.471 261.228 106.43 263.16C105.43 265.09 104.25 266.95 103.06 268.78C101.87 270.61 100.59 272.38 99.24 274.09C97.9133 275.816 96.4981 277.471 95 279.05Z" fill="black"/>
<path d="M96.0488 223C96.4066 222.759 96.802 222.58 97.2188 222.47C98.4556 222.096 99.779 222.124 100.999 222.55C100.569 222.6 100.159 222.6 99.7488 222.64L98.5188 222.73C97.6988 222.75 96.8888 222.85 96.0488 223Z" fill="black"/>
<path d="M106.059 263.001C106.626 262.319 107.241 261.677 107.899 261.081C108.539 260.481 109.149 259.931 109.809 259.271C109.622 260.191 109.128 261.019 108.409 261.621C107.748 262.265 106.942 262.738 106.059 263.001Z" fill="black"/>
<path d="M106.06 245.421L98.84 245.161C96.43 245.081 94.02 245.001 91.62 244.971C86.81 244.901 81.99 244.821 77.21 245.181C72.43 245.541 67.93 247.231 63.54 249.111C61.34 250.051 59.18 251.111 57.06 252.241C54.94 253.371 52.82 254.531 50.75 255.761C54.6845 252.953 58.8571 250.493 63.22 248.411C67.58 246.208 72.2903 244.78 77.14 244.191C81.97 243.936 86.81 243.936 91.64 244.191C96.46 244.451 101.27 244.831 106.06 245.421Z" fill="black"/>
<path d="M102.11 247.17C99.1701 247.74 96.2401 248.32 93.3301 248.97C90.4201 249.62 87.5301 250.34 84.7101 251.25C83.3059 251.691 81.9329 252.226 80.6001 252.85C79.2768 253.491 78.0032 254.229 76.7901 255.06C75.567 255.896 74.4103 256.826 73.3301 257.84C72.2446 258.845 71.2414 259.935 70.3301 261.1C71.9051 258.531 73.9389 256.274 76.3301 254.44C77.5373 253.512 78.8259 252.696 80.1801 252C81.5455 251.336 82.9556 250.768 84.4001 250.3C87.2738 249.4 90.2079 248.705 93.1801 248.22C96.1343 247.7 99.1158 247.35 102.11 247.17Z" fill="black"/>
<path d="M182.209 260.551C181.988 256.167 183.245 251.835 185.779 248.251C186.359 247.471 185.049 246.721 184.489 247.491C183.096 249.424 182.078 251.602 181.489 253.911C180.905 256.074 180.643 258.311 180.709 260.551C180.769 261.551 182.269 261.551 182.209 260.551Z" fill="black"/>
<path d="M183.43 261.6C183.942 259.52 184.974 257.603 186.43 256.03C188.091 254.107 190.134 252.551 192.43 251.46C193.3 251.06 192.54 249.77 191.67 250.16C190.955 250.506 190.266 250.904 189.61 251.35C188 252.406 186.54 253.674 185.27 255.12C183.689 256.842 182.565 258.933 182 261.2C181.82 262.15 183.26 262.55 183.44 261.6H183.43Z" fill="black"/>
<path d="M184 262.89C184.908 261.295 186.191 259.946 187.74 258.96C189.675 257.573 191.971 256.778 194.35 256.67C194.549 256.67 194.739 256.591 194.88 256.45C195.021 256.31 195.1 256.119 195.1 255.92C195.1 255.721 195.021 255.53 194.88 255.39C194.739 255.249 194.549 255.17 194.35 255.17C191.703 255.272 189.142 256.14 186.98 257.67C185.212 258.787 183.743 260.318 182.7 262.13C182.27 262.99 183.56 263.75 184 262.89Z" fill="black"/>
<path d="M137.93 285.481C137.93 285.481 163.44 289.711 180.4 260.041C180.4 260.041 184.07 257.941 184.96 261.941C184.96 261.941 186.89 291.211 169.59 304.391C152.03 317.761 131.51 313.641 131.51 313.641C131.51 313.641 118.51 295.901 137.93 285.481Z" fill="#FFC727"/>
<path d="M159.48 281.141C157.227 282.893 154.631 284.154 151.86 284.841C150.485 285.199 149.084 285.45 147.67 285.591C146.256 285.721 144.834 285.721 143.42 285.591L147.55 284.791C148.91 284.521 150.26 284.191 151.55 283.841C152.84 283.491 154.21 283.081 155.55 282.641C156.89 282.201 158.19 281.731 159.48 281.141Z" fill="black"/>
<path d="M131.51 313.641C133.168 313.858 134.837 313.981 136.51 314.011C138.19 314.011 139.85 314.011 141.51 313.921C144.834 313.718 148.133 313.223 151.37 312.441C154.61 311.685 157.769 310.613 160.8 309.241C163.851 307.867 166.784 306.245 169.57 304.391C168.91 304.911 168.25 305.391 167.57 305.941C166.931 306.47 166.263 306.964 165.57 307.421L163.41 308.751C162.7 309.211 161.91 309.541 161.17 309.941C159.659 310.703 158.103 311.371 156.51 311.941C155.72 312.241 154.9 312.451 154.09 312.711L152.88 313.091L151.64 313.381C148.345 314.182 144.97 314.608 141.58 314.651C138.193 314.758 134.807 314.418 131.51 313.641Z" fill="black"/>
<path d="M134 315.19C134.482 315.178 134.963 315.134 135.44 315.06C135.92 314.99 136.44 314.94 136.85 314.86C137.79 314.73 138.69 314.57 139.68 314.34C138.952 315.046 138.009 315.49 137 315.6C136.498 315.66 135.992 315.66 135.49 315.6C134.967 315.59 134.454 315.449 134 315.19Z" fill="white"/>
<path d="M153.278 237.27C153.108 237.16 153.128 237.72 153.278 237.86C157.148 241.32 160.898 245.92 158.388 250.41C158.366 250.443 158.357 250.484 158.365 250.523C158.372 250.563 158.395 250.598 158.428 250.62C158.461 250.643 158.502 250.651 158.542 250.644C158.581 250.636 158.616 250.613 158.638 250.58C162.628 246 157.588 239.94 153.278 237.27Z" fill="black"/>
<path d="M146.479 237.44C139.529 243.26 150.029 254.77 156.479 249.37C162.929 243.97 152.309 232.56 146.479 237.44Z" fill="black"/>
<path d="M131.39 243.421C130.489 242.154 129.872 240.708 129.58 239.181C129.253 237.63 129.226 236.032 129.5 234.471C129.782 232.883 130.444 231.387 131.43 230.111C132.384 228.856 133.658 227.882 135.12 227.291C134.22 228.436 133.426 229.661 132.75 230.951C132.132 232.177 131.7 233.488 131.47 234.841C131.229 236.218 131.115 237.614 131.13 239.011C131.15 240.441 131.24 241.891 131.39 243.421Z" fill="black"/>
<path d="M130.638 243.521C129.499 242.464 128.599 241.175 127.998 239.741C127.357 238.293 127 236.734 126.948 235.151C126.897 233.536 127.24 231.933 127.948 230.481C128.613 229.059 129.65 227.843 130.948 226.961C130.304 228.255 129.785 229.608 129.398 231.001C129.05 232.328 128.898 233.7 128.948 235.071C128.993 236.468 129.17 237.858 129.478 239.221C129.788 240.651 130.188 242.051 130.638 243.521Z" fill="black"/>
<path opacity="0.5" d="M170.41 384.371C161.41 390.261 149.28 389.971 140.41 391.251C131.54 392.531 118.6 398.931 105.18 401.661C104.98 390.851 105.98 367.661 116.18 345.661C129.4 317.161 148.18 308.371 154.29 331.111C159 348.691 159.53 364.471 170.41 384.371Z" fill="white"/>
<path d="M158.93 277.911C156.138 279.159 153.175 279.981 150.14 280.351C147.09 280.751 143.998 280.711 140.96 280.231C139.439 279.998 137.936 279.663 136.46 279.231C135 278.751 133.579 278.159 132.21 277.461C131.523 277.135 130.856 276.771 130.21 276.371L128.29 275.111C127.655 274.683 127.053 274.209 126.49 273.691C125.91 273.201 125.34 272.691 124.77 272.201C127.189 273.999 129.798 275.528 132.55 276.761C133.918 277.371 135.324 277.892 136.76 278.321C138.194 278.729 139.654 279.043 141.13 279.261C144.089 279.728 147.093 279.845 150.08 279.611L152.32 279.371C153.06 279.251 153.81 279.151 154.55 279.001C156.031 278.731 157.494 278.367 158.93 277.911Z" fill="black"/>
<path d="M196.709 227.321C196.709 227.321 186.809 227.951 186.809 224.961C186.809 223.581 194.369 218.961 197.099 218.961C199.829 218.961 196.709 227.321 196.709 227.321Z" fill="black"/>
<path d="M150.549 266.281C154.503 266.281 157.709 263.075 157.709 259.121C157.709 255.167 154.503 251.961 150.549 251.961C146.594 251.961 143.389 255.167 143.389 259.121C143.389 263.075 146.594 266.281 150.549 266.281Z" fill="#FF9BBC"/>
<path d="M212.561 389.531C212.561 388.131 215.161 386.371 215.881 385.931C216.601 385.491 219.881 385.271 220.101 384.711C220.321 384.151 223.481 383.491 224.641 383.551C225.801 383.611 227.361 385.651 227.581 387.261C227.689 388.041 227.513 388.833 227.085 389.494C226.658 390.155 226.006 390.64 225.251 390.861C223.811 391.141 221.181 392.471 220.081 392.581C218.981 392.691 212.561 391.091 212.561 389.531Z" fill="#FFC727"/>
<path opacity="0.3" d="M212.561 389.531C212.561 388.131 215.161 386.371 215.881 385.931C216.601 385.491 219.881 385.271 220.101 384.711C220.321 384.151 223.481 383.491 224.641 383.551C225.801 383.611 227.361 385.651 227.581 387.261C227.689 388.041 227.513 388.833 227.085 389.494C226.658 390.155 226.006 390.64 225.251 390.861C223.811 391.141 221.181 392.471 220.081 392.581C218.981 392.691 212.561 391.091 212.561 389.531Z" fill="white"/>
<path d="M201.32 384.74C200.6 383.74 202.23 382.97 203.04 381.8C203.85 380.63 206.57 381.1 207.09 381.47C207.768 382.418 208.074 383.582 207.95 384.74C207.187 385.825 206.032 386.571 204.73 386.82C203.82 386.82 201.77 385.34 201.32 384.74Z" fill="#FFC727"/>
<path opacity="0.3" d="M201.32 384.74C200.6 383.74 202.23 382.97 203.04 381.8C203.85 380.63 206.57 381.1 207.09 381.47C207.768 382.418 208.074 383.582 207.95 384.74C207.187 385.825 206.032 386.571 204.73 386.82C203.82 386.82 201.77 385.34 201.32 384.74Z" fill="white"/>
<path d="M214.101 382.801C214.291 381.211 217.391 381.671 217.881 382.531C218.371 383.391 216.581 385.071 215.771 384.371C214.961 383.671 214.001 383.391 214.101 382.801Z" fill="#FFC727"/>
<path opacity="0.3" d="M214.101 382.801C214.291 381.211 217.391 381.671 217.881 382.531C218.371 383.391 216.581 385.071 215.771 384.371C214.961 383.671 214.001 383.391 214.101 382.801Z" fill="white"/>
<path d="M203 392.111C203.5 391.491 205 391.351 205.23 391.711C205.46 392.071 205.95 392.791 205.59 393.081C205.23 393.371 204.22 394.021 203.76 393.661C203.3 393.301 202.76 392.441 203 392.111Z" fill="#FFC727"/>
<path opacity="0.3" d="M203 392.111C203.5 391.491 205 391.351 205.23 391.711C205.46 392.071 205.95 392.791 205.59 393.081C205.23 393.371 204.22 394.021 203.76 393.661C203.3 393.301 202.76 392.441 203 392.111Z" fill="white"/>
<path d="M192.85 387.23C193.14 386.23 194.58 385.57 195.5 385.46C196.42 385.35 198.13 386.11 198.03 386.76C197.93 387.41 196.63 387.98 196.41 388.45C196.19 388.92 195.51 389.93 194.83 389.66C194.15 389.39 192.52 388.34 192.85 387.23Z" fill="#FFC727"/>
<path opacity="0.3" d="M192.85 387.23C193.14 386.23 194.58 385.57 195.5 385.46C196.42 385.35 198.13 386.11 198.03 386.76C197.93 387.41 196.63 387.98 196.41 388.45C196.19 388.92 195.51 389.93 194.83 389.66C194.15 389.39 192.52 388.34 192.85 387.23Z" fill="white"/>
</svg>
