<svg width="668" height="668" viewBox="0 0 668 668" fill="none" xmlns="http://www.w3.org/2000/svg">
<path d="M25.6667 528.067H70.2583M25.6667 411.967H70.2583M25.6667 25.6667V642.333H642.333M25.6459 71.225H70.2375M25.6459 185.058H70.2375M25.6459 297.983H70.2375" stroke="white" stroke-width="50" stroke-miterlimit="6" stroke-linecap="round" stroke-linejoin="round"/>
<path d="M220.842 470.229C220.841 482.143 216.108 493.568 207.683 501.992C199.259 510.416 187.834 515.149 175.921 515.15C164.007 515.15 152.58 510.417 144.156 501.993C135.731 493.569 130.997 482.143 130.996 470.229C130.996 458.314 135.729 446.887 144.154 438.462C152.579 430.037 164.006 425.304 175.921 425.304C187.835 425.305 199.261 430.039 207.685 438.464C216.109 446.889 220.842 458.315 220.842 470.229ZM330.083 252.158C330.083 258.058 328.921 263.901 326.663 269.351C324.405 274.802 321.096 279.755 316.924 283.927C312.752 288.098 307.799 291.407 302.347 293.665C296.896 295.922 291.054 297.084 285.154 297.083C273.239 297.083 261.812 292.35 253.387 283.925C244.962 275.5 240.229 264.073 240.229 252.158C240.229 240.243 244.962 228.817 253.387 220.392C261.812 211.967 273.239 207.233 285.154 207.233C297.068 207.234 308.494 211.968 316.918 220.393C325.342 228.818 330.075 240.244 330.075 252.158H330.083ZM511.65 403.808C511.649 415.722 506.915 427.148 498.49 435.572C490.065 443.997 478.639 448.729 466.725 448.729C454.812 448.728 443.386 443.995 434.962 435.571C426.538 427.147 421.805 415.722 421.804 403.808C421.804 391.894 426.537 380.468 434.961 372.043C443.385 363.618 454.811 358.884 466.725 358.883C478.64 358.883 490.067 363.616 498.492 372.042C506.917 380.467 511.65 391.893 511.65 403.808ZM601.667 97.9917C601.667 109.907 596.934 121.333 588.508 129.758C580.083 138.184 568.656 142.917 556.742 142.917C544.827 142.917 533.4 138.184 524.975 129.758C516.55 121.333 511.817 109.907 511.817 97.9917C511.818 86.0776 516.551 74.6518 524.976 66.2276C533.401 57.8034 544.827 53.0708 556.742 53.0708C568.655 53.0719 580.08 57.805 588.504 66.2291C596.928 74.6531 601.661 86.0783 601.662 97.9917H601.667Z" stroke="white" stroke-width="50" stroke-miterlimit="6" stroke-linecap="round" stroke-linejoin="round"/>
<path d="M202.25 426.492L261.071 295.817M323.904 285.717L425.292 373.733M482.242 356.788L546.95 138.483" stroke="white" stroke-width="33.3333" stroke-miterlimit="6" stroke-linecap="round" stroke-linejoin="round"/>
</svg>
