<svg width="45" height="45" viewBox="0 0 45 45" fill="none" xmlns="http://www.w3.org/2000/svg">
<path fill-rule="evenodd" clip-rule="evenodd" d="M29.75 6.25C29.75 2.5 26.045 0 23.15 0C21.135 0 20.9775 1.53 20.6675 4.55C20.53 5.875 20.365 7.485 20 9.375C19.035 14.38 15.7 20.775 12.51 22.6875V37.5C12.5 43.125 14.375 45 22.5 45H31.9325C37.3725 45 38.69 41.4175 39.18 40.09L39.2125 40C39.4975 39.235 40.1075 38.6325 40.8075 37.95C41.5825 37.185 42.4675 36.3175 43.125 35C43.9025 33.4425 43.8 32.0575 43.7075 30.825C43.65 30.0775 43.5975 29.3875 43.75 28.75C43.91 28.075 44.115 27.5625 44.3125 27.0725C44.67 26.1825 45 25.3575 45 23.75C45 20 43.13 17.505 39.2125 17.505H28.75C28.75 17.505 29.75 10 29.75 6.25ZM3.75 20C2.75544 20 1.80161 20.3951 1.09835 21.0983C0.395088 21.8016 0 22.7554 0 23.75V41.25C2.09588e-08 42.2446 0.395088 43.1984 1.09835 43.9016C1.80161 44.6049 2.75544 45 3.75 45C4.74456 45 5.69839 44.6049 6.40165 43.9016C7.10491 43.1984 7.5 42.2446 7.5 41.25V23.75C7.5 22.7554 7.10491 21.8016 6.40165 21.0983C5.69839 20.3951 4.74456 20 3.75 20Z" fill="#83FF81"/>
</svg>
