<svg width="45" height="45" viewBox="0 0 45 45" fill="none" xmlns="http://www.w3.org/2000/svg">
<path fill-rule="evenodd" clip-rule="evenodd" d="M15.25 38.75C15.25 42.5 18.955 45 21.85 45C23.865 45 24.0225 43.47 24.3325 40.45C24.47 39.125 24.635 37.515 25 35.625C25.965 30.62 29.3 24.225 32.49 22.3125V7.5C32.5 1.875 30.625 0 22.5 0H13.0675C7.6275 0 6.31 3.5825 5.82 4.91L5.7875 5C5.5025 5.765 4.8925 6.3675 4.1925 7.05C3.4175 7.815 2.5325 8.6825 1.875 10C1.0975 11.5575 1.2 12.9425 1.2925 14.175C1.35 14.9225 1.4025 15.6125 1.25 16.25C1.09 16.925 0.884998 17.4375 0.6875 17.9275C0.329998 18.8175 0 19.6425 0 21.25C0 25 1.87 27.495 5.7875 27.495H16.25C16.25 27.495 15.25 35 15.25 38.75ZM41.25 25C42.2446 25 43.1984 24.6049 43.9017 23.9017C44.6049 23.1984 45 22.2446 45 21.25V3.75C45 2.75544 44.6049 1.80161 43.9017 1.09835C43.1984 0.395088 42.2446 0 41.25 0C40.2554 0 39.3016 0.395088 38.5983 1.09835C37.8951 1.80161 37.5 2.75544 37.5 3.75V21.25C37.5 22.2446 37.8951 23.1984 38.5983 23.9017C39.3016 24.6049 40.2554 25 41.25 25Z" fill="#FF6E6E"/>
</svg>
