<svg width="35" height="36" viewBox="0 0 35 36" fill="none" xmlns="http://www.w3.org/2000/svg">
<circle cx="17.5" cy="17.7441" r="17.5" fill="#01A5F5"/>
<path d="M24.5567 11.327C23.2346 10.7137 21.8174 10.2604 20.3355 10.0026C20.3223 10 20.3086 10.0017 20.2964 10.0074C20.2841 10.0132 20.2739 10.0227 20.2672 10.0346C20.0857 10.3626 19.8835 10.7901 19.7418 11.1279C18.1701 10.8863 16.5721 10.8863 15.0004 11.1279C14.8426 10.7536 14.6646 10.3886 14.4672 10.0346C14.4606 10.0225 14.4504 10.0128 14.4382 10.0068C14.426 10.0007 14.4123 9.99866 14.399 10.0008C12.9179 10.2586 11.5007 10.7119 10.1778 11.3261C10.1664 11.331 10.1567 11.3394 10.1501 11.3501C7.46099 15.4165 6.7239 19.3825 7.08596 23.2986C7.08697 23.3082 7.08986 23.3175 7.09447 23.3259C7.09908 23.3343 7.10529 23.3417 7.11275 23.3475C8.68232 24.5229 10.433 25.4183 12.2914 25.9962C12.3044 26.0003 12.3182 26.0003 12.3312 25.9962C12.3441 25.9921 12.3555 25.984 12.364 25.9731C12.7632 25.4221 13.1192 24.8399 13.4234 24.2284C13.4415 24.1928 13.4243 24.1501 13.388 24.1359C12.8297 23.9197 12.2889 23.6588 11.7703 23.3555C11.761 23.3501 11.7532 23.3423 11.7475 23.3329C11.7418 23.3236 11.7385 23.3129 11.7378 23.3019C11.7371 23.2909 11.7391 23.2799 11.7436 23.2698C11.748 23.2598 11.7549 23.2511 11.7634 23.2444C11.8723 23.1618 11.9812 23.0755 12.0849 22.9893C12.0942 22.9816 12.1054 22.9766 12.1173 22.9751C12.1292 22.9735 12.1413 22.9754 12.1523 22.9804C15.5457 24.5483 19.2207 24.5483 22.5744 22.9804C22.5853 22.9751 22.5976 22.973 22.6096 22.9744C22.6217 22.9758 22.6331 22.9807 22.6426 22.9884C22.7463 23.0755 22.8543 23.1618 22.9641 23.2444C22.9727 23.2509 22.9797 23.2595 22.9843 23.2695C22.9889 23.2794 22.9911 23.2904 22.9905 23.3014C22.99 23.3124 22.9869 23.3231 22.9813 23.3326C22.9758 23.342 22.9681 23.3499 22.9589 23.3555C22.4422 23.6613 21.9047 23.9199 21.3404 24.135C21.3318 24.1383 21.3239 24.1434 21.3173 24.15C21.3107 24.1566 21.3055 24.1646 21.3022 24.1734C21.2988 24.1823 21.2973 24.1917 21.2978 24.2012C21.2983 24.2107 21.3007 24.2199 21.305 24.2284C21.6161 24.839 21.9721 25.4203 22.3635 25.9722C22.3717 25.9836 22.383 25.992 22.396 25.9965C22.409 26.0009 22.423 26.0012 22.4361 25.9971C24.2977 25.4208 26.0512 24.525 27.6225 23.3475C27.6302 23.342 27.6366 23.3349 27.6414 23.3266C27.6462 23.3183 27.6492 23.3091 27.6502 23.2995C28.0822 18.7718 26.9261 14.8379 24.5834 11.3519C24.5777 11.3405 24.5682 11.3317 24.5567 11.327ZM13.9306 20.9139C12.9092 20.9139 12.0667 19.9637 12.0667 18.7985C12.0667 17.6323 12.8928 16.6831 13.9306 16.6831C14.9762 16.6831 15.8109 17.6403 15.7945 18.7985C15.7945 19.9646 14.9684 20.9139 13.9306 20.9139V20.9139ZM20.8219 20.9139C19.7997 20.9139 18.958 19.9637 18.958 18.7985C18.958 17.6323 19.7833 16.6831 20.8219 16.6831C21.8675 16.6831 22.7023 17.6403 22.6858 18.7985C22.6858 19.9646 21.8684 20.9139 20.8219 20.9139V20.9139Z" fill="white"/>
</svg>
