<svg width="35" height="36" viewBox="0 0 35 36" fill="none" xmlns="http://www.w3.org/2000/svg">
<circle cx="17.5" cy="17.7441" r="17.5" fill="#01A5F5"/>
<path d="M17.5 6.51562C11.0312 6.51562 6 11.5469 6 18.0156C6 25.5625 12.8281 28.7969 13.9062 28.7969C14.625 28.7969 14.625 28.4375 14.625 28.0781V26.2812C12.1094 27 11.0312 25.5625 10.6719 24.4844C10.6719 24.4844 10.6719 24.125 9.95312 23.4062C9.59375 23.0469 8.15625 22.3281 9.59375 22.3281C10.6719 22.3281 11.3906 23.7656 11.3906 23.7656C12.4688 25.2031 13.9062 24.8438 14.625 24.4844C14.625 23.7656 15.3438 23.0469 15.3438 23.0469C12.4688 22.6875 10.3125 21.6094 10.3125 17.6562C10.3125 16.2188 10.6719 15.1406 11.3906 14.4219C11.3906 14.4219 10.6719 12.9844 11.3906 11.1875C11.3906 11.1875 13.1875 11.1875 14.625 12.625C15.7031 11.9062 19.2969 11.9062 20.375 12.625C21.8125 11.1875 23.6094 11.1875 23.6094 11.1875C24.3281 13.7031 23.6094 14.4219 23.6094 14.4219C24.3281 15.1406 24.6875 16.2188 24.6875 17.6562C24.6875 21.6094 22.1719 22.6875 19.6562 23.0469C20.0156 23.4062 20.375 24.125 20.375 25.2031V28.0781C20.375 28.4375 20.375 28.7969 21.0938 28.7969C22.1719 28.7969 29 25.5625 29 18.0156C29 11.5469 23.9688 6.51562 17.5 6.51562Z" fill="#FDFFFA"/>
</svg>
