<svg width="35" height="35" viewBox="0 0 35 35" fill="none" xmlns="http://www.w3.org/2000/svg">
<circle cx="17.5" cy="17.5" r="17.5" fill="#01A5F5"/>
<path d="M20.7978 14.4273C21.4575 13.725 22.1762 12.0337 19.4909 13.9712C16.9809 15.8048 14.4565 17.6089 11.9183 19.383C11.5377 19.5609 11.1332 19.6447 10.7291 19.6294C10.325 19.6141 9.9296 19.5001 9.56672 19.2942C8.07208 18.6399 6.33318 17.7837 6.33318 17.7837C6.33318 17.7837 5.17292 16.7771 7.32445 15.9223C7.32445 15.9223 16.4342 12.0997 19.5951 10.7498C20.808 10.2071 24.9148 8.48485 24.9148 8.48485C24.9148 8.48485 26.8078 7.73621 26.5199 9.82887C26.4134 10.6908 25.8109 13.6954 25.1927 16.9445C24.282 21.5413 23.2936 26.5689 23.2936 26.5689C23.2936 26.5689 23.1004 27.9837 22.2174 28.1753C21.2903 28.0967 20.4185 27.648 19.7382 26.8993C19.5461 26.7008 16.1017 23.6862 14.8616 22.2414C14.7336 22.122 14.6336 21.9645 14.5707 21.7838C14.5078 21.6031 14.4842 21.4049 14.502 21.2078C14.5197 21.0106 14.5783 20.8209 14.6723 20.6562C14.7663 20.4915 14.8926 20.3572 15.0395 20.2658C16.9896 18.3647 18.9094 16.4181 20.7978 14.4273Z" fill="white"/>
</svg>
