<svg width="35" height="36" viewBox="0 0 35 36" fill="none" xmlns="http://www.w3.org/2000/svg">
<circle cx="17.5" cy="17.7441" r="17.5" fill="#01A5F5"/>
<path d="M28.8138 11.0165C28.0484 11.3573 27.2262 11.5875 26.3618 11.6916C27.2537 11.1554 27.9209 10.3115 28.2391 9.3173C27.4011 9.81738 26.484 10.1694 25.5276 10.358C24.8844 9.66807 24.0326 9.21076 23.1042 9.05709C22.1759 8.90343 21.223 9.06199 20.3936 9.50817C19.5641 9.95435 18.9045 10.6632 18.5171 11.5246C18.1297 12.3861 18.0362 13.3519 18.2511 14.2722C16.5531 14.1865 14.8921 13.7431 13.3757 12.9708C11.8594 12.1984 10.5216 11.1143 9.44925 9.78884C9.08258 10.4243 8.87175 11.1611 8.87175 11.9458C8.87134 12.6522 9.04448 13.3477 9.37581 13.9708C9.70713 14.5938 10.1864 15.1251 10.7711 15.5174C10.093 15.4957 9.42988 15.3116 8.83692 14.9804V15.0357C8.83685 16.0264 9.17795 16.9867 9.80233 17.7535C10.4267 18.5203 11.2959 19.0465 12.2625 19.2427C11.6335 19.4138 10.974 19.439 10.3338 19.3164C10.6065 20.1689 11.1377 20.9143 11.8531 21.4484C12.5684 21.9825 13.4321 22.2785 14.3232 22.2949C12.8105 23.4879 10.9424 24.1351 9.01933 24.1322C8.67868 24.1323 8.33832 24.1123 8 24.0724C9.95202 25.3334 12.2243 26.0026 14.545 26C22.4008 26 26.6954 19.4629 26.6954 13.7933C26.6954 13.6091 26.6908 13.423 26.6826 13.2388C27.5179 12.6319 28.239 11.8803 28.812 11.0193L28.8138 11.0165V11.0165Z" fill="#FDFFFA"/>
</svg>
