<svg width="35" height="36" viewBox="0 0 35 36" fill="none" xmlns="http://www.w3.org/2000/svg">
<circle cx="17.5" cy="17.7441" r="17.5" fill="#01A5F5"/>
<path d="M17.5 7C23.8513 7 29 11.9249 29 18C29 24.0751 23.8513 29 17.5 29C11.1487 29 6 24.0751 6 18C6 11.9249 11.1487 7 17.5 7ZM20.8792 22.9489H14.1208C14.8705 25.6041 16.1737 27.3503 17.5 27.3503C18.8263 27.3503 20.1295 25.6041 20.8792 22.9489ZM12.3354 22.9496L9.20499 22.9494C10.3069 24.6355 11.9551 25.9615 13.9125 26.7005C13.312 25.7989 12.8165 24.6701 12.452 23.384L12.3354 22.9496ZM25.795 22.9494L22.6646 22.9496C22.2924 24.4165 21.7547 25.6987 21.0862 26.7006C22.9225 26.0077 24.4859 24.799 25.5821 23.2613L25.795 22.9494ZM11.8583 15.7996H7.99766L7.99219 15.8186C7.81733 16.5184 7.72473 17.2489 7.72473 18C7.72473 19.1616 7.94618 20.2737 8.35089 21.2998L11.9995 21.2994C11.8358 20.2556 11.7491 19.1467 11.7491 18C11.7491 17.2477 11.7864 16.5117 11.8583 15.7996ZM21.4059 15.7997H13.5941C13.5159 16.5039 13.4738 17.2404 13.4738 18C13.4738 19.1653 13.5729 20.2765 13.7495 21.2996H21.2505C21.4271 20.2765 21.5262 19.1653 21.5262 18C21.5262 17.2404 21.4841 16.5039 21.4059 15.7997ZM27.0028 15.7987L23.1417 15.7996C23.2136 16.5117 23.2509 17.2477 23.2509 18C23.2509 19.1467 23.1642 20.2556 23.0005 21.2994L26.6491 21.2998C27.0538 20.2737 27.2753 19.1616 27.2753 18C27.2753 17.2418 27.1809 16.5046 27.0028 15.7987ZM13.9138 9.29942L13.8874 9.30901C11.5334 10.205 9.62926 11.9508 8.58905 14.1503L12.0938 14.1507C12.4541 12.223 13.0829 10.5447 13.9138 9.29942ZM17.5 8.64974L17.367 8.65557C15.912 8.78289 14.5064 10.9847 13.8536 14.1503H21.1464C20.4955 10.9936 19.0959 8.79524 17.6452 8.65669L17.5 8.64974ZM21.0875 9.29948L21.2103 9.49096C21.9798 10.7145 22.564 12.3201 22.9062 14.1507L26.4109 14.1503C25.4168 12.0481 23.6334 10.3604 21.4223 9.43286L21.0875 9.29948Z" fill="#FDFFFA"/>
</svg>
